<svg xmlns="http://www.w3.org/2000/svg" width="22" height="16" viewBox="0 0 22 16">
  <g id="email" transform="translate(0 -80)">
    <g id="Group_21" data-name="Group 21" transform="translate(13.909 82.791)">
      <g id="Group_20" data-name="Group 20">
        <path id="Path_15" data-name="Path 15" d="M339.392,150.227l8.091,5.115V144.9Z" transform="translate(-339.392 -144.896)" fill="#FF571F"/>
      </g>
    </g>
    <g id="Group_23" data-name="Group 23" transform="translate(0 82.791)">
      <g id="Group_22" data-name="Group 22">
        <path id="Path_16" data-name="Path 16" d="M0,144.9v10.446l8.091-5.115Z" transform="translate(0 -144.896)" fill="#FF571F"/>
      </g>
    </g>
    <g id="Group_25" data-name="Group 25" transform="translate(0.045 80)">
      <g id="Group_24" data-name="Group 24">
        <path id="Path_17" data-name="Path 17" d="M21.537,80H2.293A1.4,1.4,0,0,0,.96,81.276l10.955,7.876L22.87,81.276A1.4,1.4,0,0,0,21.537,80Z" transform="translate(-0.96 -80)" fill="#FF571F"/>
      </g>
    </g>
    <g id="Group_27" data-name="Group 27" transform="translate(0.048 88.777)">
      <g id="Group_26" data-name="Group 26">
        <path id="Path_18" data-name="Path 18" d="M14.3,277.922l-1.945,1.4a.642.642,0,0,1-.756,0l-1.945-1.4-8.629,5.957a1.4,1.4,0,0,0,1.331,1.266H21.6a1.4,1.4,0,0,0,1.331-1.266Z" transform="translate(-1.024 -277.92)" fill="#FF571F"/>
      </g>
    </g>
  </g>
</svg>
