<svg xmlns="http://www.w3.org/2000/svg" width="20" height="20" viewBox="0 0 20 20"><path d="M10.95108.70746l1.65207,5.39122a.99645.99645,0,0,0,.95108.70746H19.0026a1.00514,1.00514,0,0,1,.6043,1.80154l-4.49236,3.46075a1.00871,1.00871,0,0,0-.34678,1.09408l1.69543,5.53271a.99733.99733,0,0,1-1.55538,1.09408L10.6043,16.474a.98886.98886,0,0,0-1.20861,0L5.09219,19.7893a.99733.99733,0,0,1-1.55538-1.09408l1.69543-5.53271a1.00871,1.00871,0,0,0-.34678-1.09408L.39309,8.60768A1.00514,1.00514,0,0,1,.9974,6.80614H6.44577a.99645.99645,0,0,0,.95108-.70746L9.04892.70746A.993.993,0,0,1,10.95108.70746Z" fill="#bccee5"/></svg>