<svg xmlns="http://www.w3.org/2000/svg" width="30" height="26" viewBox="0 0 30 26">
  <path id="basket" d="M20.908,23.272A2.727,2.727,0,1,1,23.636,26,2.731,2.731,0,0,1,20.908,23.272Zm1.819,0a.909.909,0,1,0,.909-.909A.91.91,0,0,0,22.727,23.272Zm-14,0A2.727,2.727,0,1,1,11.452,26,2.73,2.73,0,0,1,8.725,23.272Zm1.818,0a.909.909,0,1,0,.909-.909A.911.911,0,0,0,10.543,23.272Zm-.875-2.727a2.606,2.606,0,0,1-2.637-2.568A2.57,2.57,0,0,1,8.62,15.621C8.454,14.891,5.558,2.2,5.447,1.712H.878A.867.867,0,0,1,0,.856.868.868,0,0,1,.878,0H6.152A.874.874,0,0,1,7.01.671l.628,2.754H29.121a.886.886,0,0,1,.7.34.838.838,0,0,1,.144.751L26.45,16.5a.876.876,0,0,1-.845.621H9.665a.856.856,0,1,0,0,1.712H25.605a.856.856,0,1,1,0,1.712Zm.7-5.136h14.57L27.956,5.136H8.029Z" fill="#FF571F"/>
</svg>
