<svg xmlns="http://www.w3.org/2000/svg" width="60" height="60" viewBox="0 0 60 60">
  <g id="communication" transform="translate(588.579 -68.077)">
    <g id="Group_11808" data-name="Group 11808" transform="translate(-588.579 68.077)">
      <g id="Group_11806" data-name="Group 11806" transform="translate(0.459 0.444)">
        <path id="Path_5068" data-name="Path 5068" d="M-534.468,120.46a24.643,24.643,0,0,0-1.656-34.826,24.673,24.673,0,0,0-4.509-3.251,24.682,24.682,0,0,0-33.592-9.444,24.653,24.653,0,0,0-9.45,33.572,24.659,24.659,0,0,0,3.29,4.554l-4.065,4.064a2.348,2.348,0,0,0,0,3.321,2.351,2.351,0,0,0,1.66.688H-572.1a24.471,24.471,0,0,0,19.372,9.394h20.663a2.349,2.349,0,0,0,2.351-2.348,2.348,2.348,0,0,0-.688-1.661Zm-43.444-8.544a1.174,1.174,0,0,0,0-1.661,22.3,22.3,0,0,1,.007-31.554,22.334,22.334,0,0,1,31.572.007,22.307,22.307,0,0,1,6.533,16.1c-.179,12.119-10.479,21.983-22.964,21.983H-582.79Zm25.187,14.269A22.126,22.126,0,0,1-569,119.139h6.242c13.761,0,25.115-10.9,25.313-24.3a24.6,24.6,0,0,0-1.361-8.406,22.289,22.289,0,0,1,3.555,31.333,22.312,22.312,0,0,1-1.681,1.881,1.173,1.173,0,0,0,0,1.66l4.874,4.875Z" transform="translate(587.005 -69.61)" fill="#FF571F"/>
        <path id="Path_5069" data-name="Path 5069" d="M-553.121,128.411a24.819,24.819,0,0,1-19.367-9.4h-10.606a2.514,2.514,0,0,1-1.786-.74,2.511,2.511,0,0,1-.741-1.788,2.512,2.512,0,0,1,.74-1.787l3.945-3.944a24.891,24.891,0,0,1-3.2-4.461,24.862,24.862,0,0,1,9.519-33.818A24.891,24.891,0,0,1-540.8,81.947a24.863,24.863,0,0,1,4.5,3.25,24.852,24.852,0,0,1,1.783,34.954l3.948,3.944a2.511,2.511,0,0,1,.74,1.788,2.532,2.532,0,0,1-2.529,2.527h-20.757ZM-562.5,69.664a24.357,24.357,0,0,0-11.943,3.125,24.5,24.5,0,0,0-9.382,33.33,24.519,24.519,0,0,0,3.267,4.522l.115.126-4.187,4.186a2.156,2.156,0,0,0-.636,1.534,2.154,2.154,0,0,0,.636,1.534,2.157,2.157,0,0,0,1.533.635h10.78l.054.069a24.42,24.42,0,0,0,19.231,9.326h20.665a2.158,2.158,0,0,0,1.534-.635,2.156,2.156,0,0,0,.636-1.534,2.157,2.157,0,0,0-.635-1.535l-4.189-4.185.115-.127a24.494,24.494,0,0,0-1.644-34.575,24.5,24.5,0,0,0-4.477-3.228l-.044-.025-.025-.044A24.519,24.519,0,0,0-562.5,69.664Zm9.384,56.4a22.369,22.369,0,0,1-16.325-7.1l-.281-.3h6.654c13.663,0,24.939-10.821,25.135-24.123a24.356,24.356,0,0,0-1.351-8.345l-.2-.584.484.385a22.5,22.5,0,0,1,3.584,31.587,22.508,22.508,0,0,1-1.695,1.9,1,1,0,0,0,0,1.408l5.18,5.18h-21.182Zm-15.777-7.046a22.014,22.014,0,0,0,15.777,6.688H-532.8l-4.568-4.569a1.354,1.354,0,0,1,0-1.914,22.185,22.185,0,0,0,1.668-1.866,22.137,22.137,0,0,0-3.049-30.692,24.708,24.708,0,0,1,1.174,7.877c-.2,13.5-11.635,24.476-25.493,24.476Zm5.824-2.349h-20.459l5.183-5.18a1,1,0,0,0,0-1.407,22.509,22.509,0,0,1,.007-31.809,22.54,22.54,0,0,1,31.827.007,22.61,22.61,0,0,1,6.586,16.229C-540.1,106.725-550.487,116.667-563.068,116.667Zm-19.594-.358h19.594c12.387,0,22.609-9.783,22.786-21.808a22.25,22.25,0,0,0-6.481-15.97,22.181,22.181,0,0,0-31.321-.007,22.151,22.151,0,0,0-.007,31.3,1.354,1.354,0,0,1,0,1.914Z" transform="translate(587.309 -69.306)" fill="#FF571F"/>
      </g>
      <g id="Group_11807" data-name="Group 11807" transform="translate(0)">
        <path id="Path_5070" data-name="Path 5070" d="M-553.6,128.2a25.094,25.094,0,0,1-19.5-9.4h-10.477a2.779,2.779,0,0,1-1.977-.819,2.8,2.8,0,0,1,0-3.955l3.766-3.765a25.145,25.145,0,0,1-3.064-4.319,25.132,25.132,0,0,1,9.622-34.186,25.163,25.163,0,0,1,34.144,9.507,25.182,25.182,0,0,1,4.482,3.249,25.125,25.125,0,0,1,1.972,35.145l3.769,3.765a2.778,2.778,0,0,1,.82,1.978,2.8,2.8,0,0,1-2.8,2.8H-553.6Zm-9.378-58.751a24.091,24.091,0,0,0-11.812,3.091,24.059,24.059,0,0,0-11.471,14.563,24.045,24.045,0,0,0,2.192,18.4,24.272,24.272,0,0,0,3.231,4.473l.288.316-4.368,4.367a1.9,1.9,0,0,0,0,2.689,1.891,1.891,0,0,0,1.343.556h10.912l.135.172a24.188,24.188,0,0,0,18.929,9.224h20.757a1.9,1.9,0,0,0,1.9-1.9,1.89,1.89,0,0,0-.557-1.345l-4.37-4.367.288-.316a24.226,24.226,0,0,0-1.626-34.2,24.259,24.259,0,0,0-4.427-3.193l-.11-.062-.062-.11A24.251,24.251,0,0,0-562.978,69.452Zm9.385,56.4a22.641,22.641,0,0,1-16.524-7.19l-.7-.753h7.272c13.518,0,24.674-10.7,24.868-23.859a24.075,24.075,0,0,0-1.336-8.253l-.507-1.46,1.21.963a22.6,22.6,0,0,1,8.438,15.232,22.591,22.591,0,0,1-4.811,16.734,22.734,22.734,0,0,1-1.715,1.919.721.721,0,0,0-.213.514.72.72,0,0,0,.213.513l5.639,5.64h-21.832Zm-15.131-7.047a21.748,21.748,0,0,0,15.131,6.151h19.669l-4.11-4.111a1.613,1.613,0,0,1-.475-1.147,1.611,1.611,0,0,1,.475-1.147,22,22,0,0,0,1.648-1.844,21.7,21.7,0,0,0,4.621-16.075A21.687,21.687,0,0,0-538.7,87a24.981,24.981,0,0,1,.917,7.063c-.2,13.644-11.759,24.743-25.764,24.743Zm5.177-2.348h-21.11l5.643-5.64h0a.721.721,0,0,0,.213-.514.721.721,0,0,0-.213-.514,22.78,22.78,0,0,1,.007-32.191,22.811,22.811,0,0,1,32.21.007,22.885,22.885,0,0,1,6.665,16.424C-540.315,106.4-550.819,116.458-563.548,116.458Zm-18.946-.9h18.946c12.242,0,22.344-9.665,22.519-21.545a21.981,21.981,0,0,0-6.4-15.778,21.914,21.914,0,0,0-30.942-.007,21.884,21.884,0,0,0-.007,30.925,1.611,1.611,0,0,1,.475,1.147,1.612,1.612,0,0,1-.475,1.147h0Z" transform="translate(588.247 -68.383)" fill="#FF571F"/>
        <path id="Path_5071" data-name="Path 5071" d="M-553.933,128.077a25.317,25.317,0,0,1-19.585-9.4h-10.391a2.958,2.958,0,0,1-2.1-.871,2.978,2.978,0,0,1,0-4.209l3.647-3.647a25.338,25.338,0,0,1-2.975-4.224,25.106,25.106,0,0,1-2.278-19.218A25.122,25.122,0,0,1-575.65,71.3a25.367,25.367,0,0,1,34.365,9.533,25.344,25.344,0,0,1,4.471,3.247,25.39,25.39,0,0,1,2.1,35.271l3.651,3.647a2.959,2.959,0,0,1,.872,2.1,2.98,2.98,0,0,1-2.978,2.975Zm-9.4-59.642a24.767,24.767,0,0,0-12.146,3.175,24.766,24.766,0,0,0-11.8,15,24.751,24.751,0,0,0,2.246,18.946,25.008,25.008,0,0,0,3.042,4.289l.111.126-3.885,3.884a2.62,2.62,0,0,0,0,3.7,2.6,2.6,0,0,0,1.85.766h10.563l.054.068a24.955,24.955,0,0,0,19.359,9.329h20.759a2.622,2.622,0,0,0,2.62-2.617,2.6,2.6,0,0,0-.767-1.852l-3.888-3.884.111-.126a25.029,25.029,0,0,0-1.958-34.9,24.963,24.963,0,0,0-4.45-3.226l-.043-.024-.025-.043A24.993,24.993,0,0,0-563.329,68.436Zm30.155,58.746h-20.758A24.382,24.382,0,0,1-573,117.888l-.081-.1h-10.826a2.067,2.067,0,0,1-1.47-.609,2.082,2.082,0,0,1,0-2.942l4.248-4.246-.173-.19a24.478,24.478,0,0,1-3.255-4.506,24.226,24.226,0,0,1-2.208-18.541A24.239,24.239,0,0,1-575.212,72.08a24.393,24.393,0,0,1,11.9-3.114A24.472,24.472,0,0,1-541.98,81.423l.037.066.066.037a24.473,24.473,0,0,1,4.461,3.216,24.408,24.408,0,0,1,1.638,34.453l-.172.189,4.25,4.246a2.067,2.067,0,0,1,.609,1.471A2.083,2.083,0,0,1-533.174,127.181Zm-30.138-57.858a24.036,24.036,0,0,0-11.725,3.068,23.883,23.883,0,0,0-11.387,14.456,23.87,23.87,0,0,0,2.176,18.269,24.107,24.107,0,0,0,3.207,4.44l.4.442-4.49,4.488a1.724,1.724,0,0,0,0,2.436,1.712,1.712,0,0,0,1.217.5h11l.189.241a24.021,24.021,0,0,0,18.789,9.155h20.758a1.725,1.725,0,0,0,1.724-1.721,1.711,1.711,0,0,0-.5-1.218l-4.492-4.488.4-.442a24.05,24.05,0,0,0-1.615-33.947,24.1,24.1,0,0,0-4.4-3.169l-.154-.086-.086-.154A24.114,24.114,0,0,0-563.311,69.324Zm31.651,56.4h-22.265a22.833,22.833,0,0,1-16.656-7.247l-.982-1.054h7.684c13.421,0,24.5-10.625,24.69-23.684a23.9,23.9,0,0,0-1.326-8.192l-.711-2.044,1.694,1.348a22.772,22.772,0,0,1,8.5,15.353,22.77,22.77,0,0,1-4.848,16.867,23.133,23.133,0,0,1-1.729,1.934.543.543,0,0,0-.16.387.543.543,0,0,0,.16.387Zm-39.079-7.943.421.452a22.471,22.471,0,0,0,16.393,7.133h21.4l-5.333-5.334a.9.9,0,0,1-.265-.64.9.9,0,0,1,.265-.641,22.546,22.546,0,0,0,1.7-1.9,22.413,22.413,0,0,0,4.773-16.6,22.42,22.42,0,0,0-8.372-15.113l-.726-.578.3.876a24.248,24.248,0,0,1,1.346,8.315c-.2,13.254-11.432,24.037-25.048,24.037Zm36.917,7.047h-20.1a22.055,22.055,0,0,1-15.257-6.2l-.316-.308h5.619c13.909,0,25.386-11.021,25.586-24.567a24.841,24.841,0,0,0-.911-7.013l-.168-.6.462.423a21.988,21.988,0,0,1,6.992,13.746,21.88,21.88,0,0,1-4.66,16.208,22.136,22.136,0,0,1-1.661,1.859,1.431,1.431,0,0,0-.423,1.02,1.432,1.432,0,0,0,.423,1.02Zm-34.787-6.152a21.7,21.7,0,0,0,14.684,5.793h19.238l-3.8-3.805a1.789,1.789,0,0,1-.528-1.273,1.787,1.787,0,0,1,.528-1.274,21.765,21.765,0,0,0,1.634-1.829,21.524,21.524,0,0,0,4.584-15.944A21.632,21.632,0,0,0-538.7,87.256a25.2,25.2,0,0,1,.762,6.5c-.2,13.741-11.841,24.92-25.944,24.92Zm4.729-2.349h-21.543l5.949-5.946a.543.543,0,0,0,.161-.387.542.542,0,0,0-.161-.387,22.96,22.96,0,0,1,.007-32.447A22.991,22.991,0,0,1-547,77.173a23.064,23.064,0,0,1,6.718,16.554C-540.469,106.192-551.054,116.332-563.881,116.332Zm-20.678-.358h20.678c12.632,0,23.056-9.982,23.237-22.252a22.7,22.7,0,0,0-6.613-16.3,22.633,22.633,0,0,0-31.958-.007,22.6,22.6,0,0,0-.007,31.94.9.9,0,0,1,.266.64.9.9,0,0,1-.266.641Zm20.678-.537h-19.38l4.419-4.417a1.434,1.434,0,0,0,.423-1.02,1.433,1.433,0,0,0-.423-1.02,21.894,21.894,0,0,1-6.447-15.591A21.891,21.891,0,0,1-578.834,77.8a22.094,22.094,0,0,1,31.2.007,22.162,22.162,0,0,1,6.456,15.908C-541.358,105.692-551.541,115.436-563.881,115.436Zm-18.514-.358h18.514c12.145,0,22.167-9.587,22.341-21.37a21.8,21.8,0,0,0-6.351-15.649,21.735,21.735,0,0,0-30.69-.007,21.536,21.536,0,0,0-6.349,15.335,21.538,21.538,0,0,0,6.342,15.338A1.789,1.789,0,0,1-578.06,110a1.79,1.79,0,0,1-.528,1.274Z" transform="translate(588.579 -68.077)" fill="#FF571F"/>
      </g>
    </g>
    <g id="Group_11811" data-name="Group 11811" transform="translate(-578.052 82.184)">
      <g id="Group_11809" data-name="Group 11809" transform="translate(0.452 0.452)">
        <path id="Path_5072" data-name="Path 5072" d="M-556.053,111.589h26.058a1.185,1.185,0,0,0,1.184-1.184,1.184,1.184,0,0,0-1.184-1.184h-26.058a1.184,1.184,0,0,0-1.184,1.184A1.185,1.185,0,0,0-556.053,111.589Z" transform="translate(557.418 -109.039)" fill="#FF571F"/>
        <path id="Path_5073" data-name="Path 5073" d="M-530.314,111.45h-26.058a1.367,1.367,0,0,1-1.365-1.365,1.367,1.367,0,0,1,1.365-1.365h26.058a1.367,1.367,0,0,1,1.365,1.365A1.366,1.366,0,0,1-530.314,111.45Zm-26.058-2.369a1,1,0,0,0-1,1,1,1,0,0,0,1,1h26.058a1,1,0,0,0,1-1,1,1,0,0,0-1-1Z" transform="translate(557.737 -108.72)" fill="#FF571F"/>
      </g>
      <g id="Group_11810" data-name="Group 11810" transform="translate(0 0)">
        <path id="Path_5074" data-name="Path 5074" d="M-530.793,111.242h-26.057a1.638,1.638,0,0,1-1.636-1.636,1.638,1.638,0,0,1,1.636-1.636h26.057a1.638,1.638,0,0,1,1.636,1.636A1.638,1.638,0,0,1-530.793,111.242Zm-26.057-2.369a.734.734,0,0,0-.733.733.734.734,0,0,0,.733.733h26.057a.734.734,0,0,0,.733-.733.734.734,0,0,0-.733-.733Z" transform="translate(558.668 -107.789)" fill="#FF571F"/>
        <path id="Path_5075" data-name="Path 5075" d="M-531.112,111.1H-557.17a1.819,1.819,0,0,1-1.817-1.817,1.819,1.819,0,0,1,1.817-1.817h26.057a1.819,1.819,0,0,1,1.817,1.817A1.818,1.818,0,0,1-531.112,111.1Zm-26.057-3.272a1.457,1.457,0,0,0-1.456,1.455,1.457,1.457,0,0,0,1.456,1.455h26.057a1.457,1.457,0,0,0,1.455-1.455,1.457,1.457,0,0,0-1.455-1.455Zm26.057,2.369H-557.17a.914.914,0,0,1-.914-.913.914.914,0,0,1,.914-.913h26.057a.914.914,0,0,1,.913.913A.914.914,0,0,1-531.112,110.2Zm-26.057-1.465a.553.553,0,0,0-.552.552.553.553,0,0,0,.552.552h26.057a.553.553,0,0,0,.552-.552.553.553,0,0,0-.552-.552Z" transform="translate(558.987 -107.47)" fill="#FF571F"/>
      </g>
    </g>
    <g id="Group_11814" data-name="Group 11814" transform="translate(-578.052 91.574)">
      <g id="Group_11812" data-name="Group 11812" transform="translate(0.452 0.452)">
        <path id="Path_5076" data-name="Path 5076" d="M-556.053,137.814h26.058a1.185,1.185,0,0,0,1.184-1.184,1.185,1.185,0,0,0-1.184-1.185h-26.058a1.185,1.185,0,0,0-1.184,1.185A1.185,1.185,0,0,0-556.053,137.814Z" transform="translate(557.418 -135.264)" fill="#FF571F"/>
        <path id="Path_5077" data-name="Path 5077" d="M-530.314,137.675h-26.058a1.367,1.367,0,0,1-1.365-1.365,1.367,1.367,0,0,1,1.365-1.365h26.058a1.367,1.367,0,0,1,1.365,1.365A1.367,1.367,0,0,1-530.314,137.675Zm-26.058-2.369a1,1,0,0,0-1,1,1,1,0,0,0,1,1h26.058a1,1,0,0,0,1-1,1,1,0,0,0-1-1Z" transform="translate(557.737 -134.945)" fill="#FF571F"/>
      </g>
      <g id="Group_11813" data-name="Group 11813" transform="translate(0 0)">
        <path id="Path_5078" data-name="Path 5078" d="M-530.793,137.467h-26.057a1.638,1.638,0,0,1-1.636-1.636,1.638,1.638,0,0,1,1.636-1.636h26.057a1.638,1.638,0,0,1,1.636,1.636A1.638,1.638,0,0,1-530.793,137.467Zm-26.057-2.369a.734.734,0,0,0-.733.733.734.734,0,0,0,.733.733h26.057a.734.734,0,0,0,.733-.733.734.734,0,0,0-.733-.733Z" transform="translate(558.668 -134.014)" fill="#FF571F"/>
        <path id="Path_5079" data-name="Path 5079" d="M-531.112,137.329H-557.17a1.819,1.819,0,0,1-1.817-1.817,1.819,1.819,0,0,1,1.817-1.817h26.057a1.819,1.819,0,0,1,1.817,1.817A1.819,1.819,0,0,1-531.112,137.329Zm-26.057-3.272a1.457,1.457,0,0,0-1.456,1.456,1.457,1.457,0,0,0,1.456,1.455h26.057a1.457,1.457,0,0,0,1.455-1.455,1.457,1.457,0,0,0-1.455-1.456Zm26.057,2.369H-557.17a.914.914,0,0,1-.914-.913.915.915,0,0,1,.914-.914h26.057a.915.915,0,0,1,.913.914A.914.914,0,0,1-531.112,136.425Zm-26.057-1.466a.553.553,0,0,0-.552.552.553.553,0,0,0,.552.552h26.057a.553.553,0,0,0,.552-.552.553.553,0,0,0-.552-.552Z" transform="translate(558.987 -133.695)" fill="#FF571F"/>
      </g>
    </g>
    <g id="Group_11817" data-name="Group 11817" transform="translate(-578.003 100.966)">
      <g id="Group_11815" data-name="Group 11815" transform="translate(0.452 0.452)">
        <path id="Path_5080" data-name="Path 5080" d="M-541.839,162.855a1.185,1.185,0,0,0-1.184-1.184h-13.029a1.185,1.185,0,0,0-1.184,1.184,1.184,1.184,0,0,0,1.184,1.184h13.029A1.184,1.184,0,0,0-541.839,162.855Z" transform="translate(557.418 -161.49)" fill="#FF571F"/>
        <path id="Path_5081" data-name="Path 5081" d="M-543.343,163.9h-13.029a1.367,1.367,0,0,1-1.365-1.365,1.367,1.367,0,0,1,1.365-1.365h13.029a1.367,1.367,0,0,1,1.365,1.365A1.367,1.367,0,0,1-543.343,163.9Zm-13.029-2.369a1,1,0,0,0-1,1,1,1,0,0,0,1,1h13.029a1,1,0,0,0,1-1,1,1,0,0,0-1-1Z" transform="translate(557.737 -161.171)" fill="#FF571F"/>
      </g>
      <g id="Group_11816" data-name="Group 11816" transform="translate(0)">
        <path id="Path_5082" data-name="Path 5082" d="M-543.822,163.693h-13.029a1.638,1.638,0,0,1-1.636-1.636,1.638,1.638,0,0,1,1.636-1.636h13.029a1.638,1.638,0,0,1,1.636,1.636A1.638,1.638,0,0,1-543.822,163.693Zm-13.029-2.369a.734.734,0,0,0-.733.733.734.734,0,0,0,.733.733h13.029a.734.734,0,0,0,.733-.733.734.734,0,0,0-.733-.733Z" transform="translate(558.668 -160.24)" fill="#FF571F"/>
        <path id="Path_5083" data-name="Path 5083" d="M-544.141,163.555H-557.17a1.819,1.819,0,0,1-1.817-1.817,1.819,1.819,0,0,1,1.817-1.817h13.029a1.819,1.819,0,0,1,1.817,1.817A1.819,1.819,0,0,1-544.141,163.555Zm-13.029-3.272a1.457,1.457,0,0,0-1.456,1.455,1.457,1.457,0,0,0,1.456,1.456h13.029a1.457,1.457,0,0,0,1.455-1.456,1.457,1.457,0,0,0-1.455-1.455Zm13.029,2.369H-557.17a.915.915,0,0,1-.914-.914.914.914,0,0,1,.914-.913h13.029a.914.914,0,0,1,.913.913A.915.915,0,0,1-544.141,162.651Zm-13.029-1.466a.553.553,0,0,0-.552.552.553.553,0,0,0,.552.552h13.029a.553.553,0,0,0,.552-.552.553.553,0,0,0-.552-.552Z" transform="translate(558.987 -159.921)" fill="#FF571F"/>
      </g>
    </g>
  </g>
</svg>
