<svg xmlns="http://www.w3.org/2000/svg" width="24" height="29" viewBox="0 0 24 29">
  <g id="delete" transform="translate(0.003 0.001)">
    <path id="Path_4430" data-name="Path 4430" d="M223.091,154.7a.693.693,0,0,0-.693.693v13.1a.693.693,0,0,0,1.386,0V155.4A.693.693,0,0,0,223.091,154.7Zm0,0" transform="translate(-207.012 -144.577)" fill="#3b3535"/>
    <path id="Path_4431" data-name="Path 4431" d="M105.091,154.7a.693.693,0,0,0-.693.693v13.1a.693.693,0,1,0,1.386,0V155.4A.693.693,0,0,0,105.091,154.7Zm0,0" transform="translate(-97.177 -144.577)" fill="#3b3535"/>
    <path id="Path_4432" data-name="Path 4432" d="M1.962,8.632V25.365a3.709,3.709,0,0,0,1.015,2.584A3.439,3.439,0,0,0,5.45,29H18.543a3.438,3.438,0,0,0,2.473-1.049,3.709,3.709,0,0,0,1.015-2.584V8.632a2.6,2.6,0,0,0,1.943-2.843A2.628,2.628,0,0,0,21.353,3.53H17.81V2.681a2.643,2.643,0,0,0-.8-1.9A2.746,2.746,0,0,0,15.069,0H8.924A2.746,2.746,0,0,0,6.982.777a2.643,2.643,0,0,0-.8,1.9V3.53H2.64A2.628,2.628,0,0,0,.019,5.789,2.6,2.6,0,0,0,1.962,8.632ZM18.543,27.64H5.45a2.168,2.168,0,0,1-2.1-2.275V8.692h17.3V25.365a2.168,2.168,0,0,1-2.1,2.275ZM7.568,2.681a1.3,1.3,0,0,1,.393-.944,1.346,1.346,0,0,1,.964-.381h6.145a1.346,1.346,0,0,1,.964.381,1.3,1.3,0,0,1,.393.944V3.53H7.568ZM2.64,4.889H21.353a1.223,1.223,0,1,1,0,2.445H2.64a1.223,1.223,0,1,1,0-2.445Zm0,0" transform="translate(0 0)" fill="#3b3535"/>
    <path id="Path_4433" data-name="Path 4433" d="M164.091,154.7a.693.693,0,0,0-.693.693v13.1a.693.693,0,0,0,1.386,0V155.4A.693.693,0,0,0,164.091,154.7Zm0,0" transform="translate(-152.094 -144.577)" fill="#3b3535"/>
  </g>
</svg>
