<svg xmlns="http://www.w3.org/2000/svg" width="42" height="27" viewBox="0 0 42 27">
  <path id="delivery" d="M12801.459,9720.537h-15.518a4.208,4.208,0,0,1-8.282,0h-4.958a.7.7,0,0,1-.7-.692v-22.152a.694.694,0,0,1,.7-.692h26.6a.7.7,0,0,1,.7.692v4.152h7a.7.7,0,0,1,.587.318l6.3,9.692a.664.664,0,0,1,.114.374v7.615a.7.7,0,0,1-.7.692h-3.561a4.208,4.208,0,0,1-8.282,0Zm1.342-.692a2.8,2.8,0,1,0,2.8-2.768A2.789,2.789,0,0,0,12802.8,9719.845Zm-23.8,0a2.8,2.8,0,1,0,2.8-2.768A2.787,2.787,0,0,0,12779,9719.845Zm33.6-.69v-1.385h-2.1v-1.385h2.1v-3.949l-.135-.206H12802.1a.7.7,0,0,1-.7-.692v-6.23a.7.7,0,0,1,.7-.692h5.418l-.9-1.385H12800v15.923h1.457a4.208,4.208,0,0,1,8.283,0Zm-14,0v-1.411h-13.181a4.091,4.091,0,0,1,.521,1.411Zm-25.2,0h4.258a4.214,4.214,0,0,1,6.462-2.768h14.48v-15.232h-23.8v-1.382h23.8v-1.386h-25.2Zm29.4-8.308h8.766l-3.164-4.869V9706h-5.6Zm2.1,9.692v-1.385h1.4v1.385Zm-23.8,0v-1.385h1.4v1.385Z" transform="translate(-12772.002 -9697)" fill="#FF571F"/>
</svg>
