<svg xmlns="http://www.w3.org/2000/svg" width="77" height="74" viewBox="0 0 77 74">
  <g id="download" transform="translate(447.855 -44.558)">
    <path id="Path_4975" data-name="Path 4975" d="M-385.162,97.334a14.613,14.613,0,0,0,14.617-14.61,14.613,14.613,0,0,0-14.617-14.61h-.012a23.833,23.833,0,0,0-24.6-23.044A23.835,23.835,0,0,0-432.244,63.6a16.918,16.918,0,0,0-15.008,18.636,16.921,16.921,0,0,0,16.7,15.1h1.539v18.454a3.076,3.076,0,0,0,3.077,3.076h9.232a3.076,3.076,0,0,0,3.077-3.076V97.334h9.232v4.614h-1.189a3.076,3.076,0,0,0-3.084,3.069,3.074,3.074,0,0,0,.776,2.049l8.884,9.988a3.078,3.078,0,0,0,4.344.253,3.072,3.072,0,0,0,.253-.253l8.884-9.987a3.075,3.075,0,0,0-.255-4.342,3.078,3.078,0,0,0-2.038-.777h-1.189V97.334ZM-416.7,115.788h-9.232V88.107a1.538,1.538,0,0,0-1.539-1.538H-430.2l8.882-9.988,8.881,9.988h-2.726a1.538,1.538,0,0,0-1.539,1.538Zm3.077-21.53V89.645h1.189a3.076,3.076,0,0,0,3.084-3.069,3.074,3.074,0,0,0-.776-2.049l-8.884-10a3.175,3.175,0,0,0-4.488-.11q-.056.054-.11.11l-8.884,9.987a3.075,3.075,0,0,0,.24,4.343,3.078,3.078,0,0,0,2.052.784h1.189v4.614h-1.539a13.836,13.836,0,0,1-13.8-13.869A13.836,13.836,0,0,1-430.927,66.6a1.538,1.538,0,0,0,1.474-1.275,20.758,20.758,0,0,1,24-16.9A20.752,20.752,0,0,1-388.24,68.884c0,.14-.042.818-.042.818A1.538,1.538,0,0,0-386.8,71.3a1.538,1.538,0,0,0,.241-.01,11.02,11.02,0,0,1,1.4-.1,11.537,11.537,0,0,1,11.539,11.534,11.537,11.537,0,0,1-11.539,11.534h-3.847V75.8a3.076,3.076,0,0,0-3.077-3.076h-9.232a3.076,3.076,0,0,0-3.077,3.076V94.258Zm25.807,10.765-8.882,10-8.881-10h2.726a1.538,1.538,0,0,0,1.539-1.538V75.8h9.232v27.682a1.538,1.538,0,0,0,1.539,1.538Z" transform="translate(-0.406 -0.403)" fill="#FF571F"/>
    <path id="Path_4976" data-name="Path 4976" d="M-417.11,118.558h-9.232a3.176,3.176,0,0,1-3.173-3.172V97.028h-1.442a17.015,17.015,0,0,1-16.8-15.184,16.9,16.9,0,0,1,3.663-12.5,16.91,16.91,0,0,1,11.362-6.239,23.941,23.941,0,0,1,22.55-18.537,23.785,23.785,0,0,1,17.142,6.457,23.758,23.758,0,0,1,7.55,16.588,14.73,14.73,0,0,1,14.633,14.706,14.726,14.726,0,0,1-14.713,14.706h-3.75v4.421h1.093a3.171,3.171,0,0,1,2.1.8,3.174,3.174,0,0,1,.263,4.478l-8.884,9.987a3.156,3.156,0,0,1-.261.261,3.178,3.178,0,0,1-4.48-.261l-8.884-9.989a3.168,3.168,0,0,1-.8-2.113,3.151,3.151,0,0,1,.935-2.241,3.153,3.153,0,0,1,2.239-.924h1.1V97.028h-9.039v18.359A3.176,3.176,0,0,1-417.11,118.558Zm7.723-73.808q-.392,0-.786.013a23.749,23.749,0,0,0-22.384,18.455l-.015.067-.068.007a16.721,16.721,0,0,0-11.3,6.176,16.7,16.7,0,0,0-3.622,12.354,16.822,16.822,0,0,0,16.606,15.013h1.634v18.551a2.984,2.984,0,0,0,2.981,2.98h9.232a2.984,2.984,0,0,0,2.981-2.98V96.836h9.424v4.806H-406a2.962,2.962,0,0,0-2.1.868,2.959,2.959,0,0,0-.878,2.1,2.975,2.975,0,0,0,.752,1.985l8.884,9.989a2.986,2.986,0,0,0,4.209.245,3,3,0,0,0,.245-.245L-386,106.6a2.982,2.982,0,0,0-.247-4.207,2.979,2.979,0,0,0-1.974-.753h-1.285V96.836h3.943a14.534,14.534,0,0,0,14.521-14.514,14.534,14.534,0,0,0-14.521-14.514h-.093l-.015-.093a23.572,23.572,0,0,0-7.493-16.547A23.582,23.582,0,0,0-409.386,44.751Zm-7.627,70.732h-9.424V87.7a1.444,1.444,0,0,0-1.442-1.442h-2.942l9.1-10.229,9.1,10.229h-2.94a1.444,1.444,0,0,0-1.442,1.442Zm-9.232-.192h9.04V87.7a1.636,1.636,0,0,1,1.635-1.634h2.512l-8.667-9.748-8.668,9.748h2.514a1.636,1.636,0,0,1,1.635,1.634Zm29.138-.528-9.1-10.237h2.941a1.444,1.444,0,0,0,1.442-1.442V75.305h9.424v27.778a1.444,1.444,0,0,0,1.442,1.442h2.942Zm-8.667-10.045,8.667,9.755,8.668-9.755h-2.514a1.636,1.636,0,0,1-1.635-1.634V75.5h-9.039v27.586a1.636,1.636,0,0,1-1.635,1.634Zm20.207-10.765h-3.943V75.4a2.984,2.984,0,0,0-2.981-2.98h-9.232A2.984,2.984,0,0,0-404.7,75.4V93.952h-9.424V89.146h1.293a2.962,2.962,0,0,0,2.1-.868,2.959,2.959,0,0,0,.878-2.105,2.975,2.975,0,0,0-.752-1.985l-8.884-10a3.082,3.082,0,0,0-4.35-.1q-.055.052-.106.106l-8.882,9.985a2.96,2.96,0,0,0-.756,2.152,2.961,2.961,0,0,0,.988,2.056,2.977,2.977,0,0,0,1.988.76h1.286v4.806h-1.635a13.848,13.848,0,0,1-9.844-4.105,13.835,13.835,0,0,1-4.056-9.86,13.857,13.857,0,0,1,3.949-9.679,13.87,13.87,0,0,1,9.573-4.208,1.446,1.446,0,0,0,1.382-1.2,20.708,20.708,0,0,1,8.536-13.482,20.726,20.726,0,0,1,15.573-3.5,20.8,20.8,0,0,1,17.3,20.558c0,.141-.04.8-.042.824a1.431,1.431,0,0,0,.384,1.032,1.433,1.433,0,0,0,1,.46,1.408,1.408,0,0,0,.226-.009,11.161,11.161,0,0,1,1.408-.1,11.646,11.646,0,0,1,11.636,11.63A11.646,11.646,0,0,1-385.568,93.952Zm-3.75-.192h3.75a11.454,11.454,0,0,0,11.444-11.438,11.454,11.454,0,0,0-11.444-11.438,10.994,10.994,0,0,0-1.385.095,1.648,1.648,0,0,1-.258.011,1.623,1.623,0,0,1-1.137-.521,1.622,1.622,0,0,1-.435-1.172c0-.009.041-.679.041-.815a20.612,20.612,0,0,0-17.136-20.369,20.534,20.534,0,0,0-15.43,3.468,20.516,20.516,0,0,0-8.457,13.357,1.64,1.64,0,0,1-1.566,1.355,13.682,13.682,0,0,0-13.335,13.7,13.643,13.643,0,0,0,4,9.724,13.656,13.656,0,0,0,9.708,4.049h1.442V89.338h-1.093a3.169,3.169,0,0,1-2.116-.809,3.149,3.149,0,0,1-1.052-2.188,3.15,3.15,0,0,1,.8-2.291l8.884-9.987c.039-.041.077-.079.115-.116a3.251,3.251,0,0,1,2.335-.9,3.25,3.25,0,0,1,2.288,1.014l8.886,10a3.168,3.168,0,0,1,.8,2.113,3.151,3.151,0,0,1-.935,2.241,3.158,3.158,0,0,1-2.246.924h-1.093V93.76h9.039V75.4a3.176,3.176,0,0,1,3.173-3.172h9.232a3.176,3.176,0,0,1,3.173,3.172Z" fill="#FF571F"/>
  </g>
</svg>
