<svg xmlns="http://www.w3.org/2000/svg" width="68" height="77" viewBox="0 0 68 77">
  <g id="earphones" transform="translate(162.5 -5.385)">
    <g id="Group_11770" data-name="Group 11770" transform="translate(-162.5 5.385)">
      <g id="Path_5007" data-name="Path 5007" transform="translate(36.17 0)">
        <path id="Path_5016" data-name="Path 5016" d="M-111.626,8.066-116.7,6.175a4.517,4.517,0,0,0-5.813,2.61c-.036.093-.07.19-.1.286h-6.295A9.075,9.075,0,0,0-138,18.108V45.22a4.52,4.52,0,0,0,3.031,4.242v30.4a1.512,1.512,0,0,0,1.516,1.506,1.512,1.512,0,0,0,1.516-1.506v-30.4a4.52,4.52,0,0,0,3.031-4.242V27.146h6.29a4.518,4.518,0,0,0,5.623,2.994c.1-.03.193-.062.288-.1l5.078-1.892a6.057,6.057,0,0,0,3.941-5.642v-8.8A6.055,6.055,0,0,0-111.626,8.066ZM-131.937,45.22a1.512,1.512,0,0,1-1.516,1.506,1.512,1.512,0,0,1-1.516-1.506v-20.4a9.077,9.077,0,0,0,3.031,1.794Zm-3.031-27.112a6.044,6.044,0,0,1,6.063-6.025h6.063v12.05h-6.063A6.044,6.044,0,0,1-134.969,18.108Zm24.252,4.4a3.026,3.026,0,0,1-1.97,2.821l-5.079,1.892a1.519,1.519,0,0,1-1.952-.88,1.513,1.513,0,0,1-.1-.53V10.406A1.512,1.512,0,0,1-118.3,8.9a1.54,1.54,0,0,1,.534.1l5.079,1.892a3.026,3.026,0,0,1,1.97,2.821Z" transform="translate(138.758 -5.127)" fill="#FF571F"/>
        <path id="Path_5017" data-name="Path 5017" d="M-133.195,82.385a2.269,2.269,0,0,1-2.274-2.26v-29.9a5.288,5.288,0,0,1-3.031-4.742V18.363a9.847,9.847,0,0,1,9.852-9.792h5.764a5.288,5.288,0,0,1,6.71-2.849l5.073,1.892a6.85,6.85,0,0,1,4.43,6.345v8.8a6.851,6.851,0,0,1-4.43,6.348L-116.181,31c-.106.041-.218.078-.332.113a5.283,5.283,0,0,1-6.375-2.962h-5V45.478a5.289,5.289,0,0,1-3.031,4.745v29.9A2.269,2.269,0,0,1-133.195,82.385Zm4.547-72.307a8.333,8.333,0,0,0-8.337,8.285V45.478a3.774,3.774,0,0,0,2.527,3.533l.5.178V80.125a.757.757,0,0,0,.758.753.757.757,0,0,0,.758-.753V49.188l.5-.178a3.775,3.775,0,0,0,2.527-3.536V26.648h7.611l.162.535a3.766,3.766,0,0,0,4.679,2.492c.079-.023.158-.05.236-.08l5.084-1.894a5.333,5.333,0,0,0,3.448-4.941v-8.8a5.33,5.33,0,0,0-3.451-4.938l-5.072-1.892A3.766,3.766,0,0,0-121.545,9.3c-.032.081-.059.161-.083.241l-.164.533Zm-4.547,37.66a2.269,2.269,0,0,1-2.274-2.26V23.39l1.264,1.13a8.3,8.3,0,0,0,2.778,1.645l.5.178V45.478A2.269,2.269,0,0,1-133.195,47.738Zm-.758-21.138V45.478a.757.757,0,0,0,.758.753.757.757,0,0,0,.758-.753V27.391A9.9,9.9,0,0,1-133.953,26.6Zm15.909,1.728a2.279,2.279,0,0,1-.938-.2,2.256,2.256,0,0,1-1.188-1.262,2.215,2.215,0,0,1-.146-.8V10.659a2.269,2.269,0,0,1,2.274-2.26,2.266,2.266,0,0,1,.8.145l5.078,1.892A3.8,3.8,0,0,1-109.7,13.96v8.806a3.8,3.8,0,0,1-2.462,3.523l-5.081,1.892A2.264,2.264,0,0,1-118.044,28.328Zm0-18.422a.756.756,0,0,0-.758.753V26.066a.746.746,0,0,0,.048.264.746.746,0,0,0,.4.422.763.763,0,0,0,.579.02l5.081-1.892a2.286,2.286,0,0,0,1.478-2.12v-8.8a2.285,2.285,0,0,0-1.479-2.116l-5.078-1.892A.775.775,0,0,0-118.042,9.906Zm-3.785,15.236h-6.821a6.808,6.808,0,0,1-6.821-6.779,6.808,6.808,0,0,1,6.821-6.779h6.821Zm-6.821-12.051a5.3,5.3,0,0,0-5.305,5.272,5.3,5.3,0,0,0,5.305,5.272h5.305V13.09Z" transform="translate(138.5 -5.385)" fill="#FF571F"/>
      </g>
      <g id="Path_5008" data-name="Path 5008">
        <path id="Path_5018" data-name="Path 5018" d="M-140.78,9.071h-6.29a4.514,4.514,0,0,0-5.62-2.994c-.1.029-.2.062-.291.1l-5.078,1.892A6.058,6.058,0,0,0-162,13.709v8.8a6.058,6.058,0,0,0,3.941,5.642l5.079,1.892a4.518,4.518,0,0,0,5.813-2.607c.036-.095.068-.191.1-.289h6.289V45.22a4.52,4.52,0,0,0,3.031,4.242v30.4a1.512,1.512,0,0,0,1.516,1.506,1.512,1.512,0,0,0,1.516-1.506v-30.4a4.52,4.52,0,0,0,3.031-4.242V18.108A9.075,9.075,0,0,0-140.78,9.071Zm-9.094,16.74a1.512,1.512,0,0,1-1.516,1.506,1.54,1.54,0,0,1-.534-.1L-157,25.329a3.026,3.026,0,0,1-1.97-2.821v-8.8A3.026,3.026,0,0,1-157,10.888L-151.923,9a1.519,1.519,0,0,1,1.952.88,1.514,1.514,0,0,1,.1.53Zm3.031-1.678V12.083h6.063a6.044,6.044,0,0,1,6.063,6.025,6.044,6.044,0,0,1-6.063,6.025Zm10.61,22.593a1.512,1.512,0,0,1-1.516-1.506v-18.6a9.076,9.076,0,0,0,3.031-1.794v20.4A1.512,1.512,0,0,1-136.233,46.726Z" transform="translate(162.758 -5.127)" fill="#FF571F"/>
        <path id="Path_5019" data-name="Path 5019" d="M-135.975,82.385a2.269,2.269,0,0,1-2.274-2.26v-29.9a5.288,5.288,0,0,1-3.031-4.742V28.154h-5A5.287,5.287,0,0,1-152.99,31l-5.076-1.892a6.849,6.849,0,0,1-4.434-6.345v-8.8a6.851,6.851,0,0,1,4.43-6.348l5.081-1.892c.109-.041.223-.08.338-.114a5.288,5.288,0,0,1,6.369,2.963h5.76a9.847,9.847,0,0,1,9.852,9.792V45.478a5.289,5.289,0,0,1-3.031,4.745v29.9A2.269,2.269,0,0,1-135.975,82.385Zm-11.4-55.737h7.61v18.83a3.774,3.774,0,0,0,2.527,3.533l.5.178V80.125a.757.757,0,0,0,.758.753.757.757,0,0,0,.758-.753V49.188l.5-.178a3.775,3.775,0,0,0,2.527-3.536V18.363a8.333,8.333,0,0,0-8.337-8.285h-6.853l-.162-.535a3.763,3.763,0,0,0-4.676-2.493c-.083.026-.162.053-.241.081l-5.082,1.894a5.333,5.333,0,0,0-3.448,4.941v8.8a5.33,5.33,0,0,0,3.451,4.938l5.076,1.892a3.763,3.763,0,0,0,4.838-2.168c.03-.08.058-.16.082-.241Zm11.4,21.09a2.269,2.269,0,0,1-2.274-2.26V26.342l.5-.178a8.3,8.3,0,0,0,2.778-1.645l1.264-1.13V45.478A2.269,2.269,0,0,1-135.975,47.738Zm-.758-20.347V45.478a.757.757,0,0,0,.758.753.757.757,0,0,0,.758-.753V26.6A9.9,9.9,0,0,1-136.733,27.391Zm-14.4.935a2.266,2.266,0,0,1-.8-.145l-5.075-1.892a3.8,3.8,0,0,1-2.462-3.523v-8.8a3.8,3.8,0,0,1,2.462-3.526l5.075-1.892a2.271,2.271,0,0,1,1.74.057A2.256,2.256,0,0,1-149,9.864a2.215,2.215,0,0,1,.145.8V26.066A2.269,2.269,0,0,1-151.132,28.326Zm0-18.42a.745.745,0,0,0-.267.048l-5.075,1.892a2.285,2.285,0,0,0-1.479,2.12v8.8a2.285,2.285,0,0,0,1.479,2.116l5.075,1.892a.773.773,0,0,0,1.025-.7V10.659a.746.746,0,0,0-.048-.264.748.748,0,0,0-.4-.422A.759.759,0,0,0-151.132,9.906Zm10.61,15.236h-6.821V11.584h6.821a6.808,6.808,0,0,1,6.821,6.779A6.808,6.808,0,0,1-140.522,25.142Zm-5.305-1.506h5.305a5.3,5.3,0,0,0,5.305-5.272,5.3,5.3,0,0,0-5.305-5.272h-5.305Z" transform="translate(162.5 -5.385)" fill="#FF571F"/>
      </g>
    </g>
  </g>
</svg>
