<svg xmlns="http://www.w3.org/2000/svg" width="69" height="69" viewBox="0 0 69 69">
  <g id="ecology" transform="translate(73.5 4.167)">
    <g id="Group_11610" data-name="Group 11610" transform="translate(-73.5 -4.167)">
      <g id="Path_4835" data-name="Path 4835">
        <path id="Path_4920" data-name="Path 4920" d="M-39.079-3.667A33.921,33.921,0,0,0-73,30.254,33.921,33.921,0,0,0-39.079,64.175,33.921,33.921,0,0,0-5.158,30.254,33.921,33.921,0,0,0-39.079-3.667Zm0,65.127A31.207,31.207,0,0,1-70.288,30.254,31.207,31.207,0,0,1-39.082-.955,31.208,31.208,0,0,1-7.873,30.251v0A31.207,31.207,0,0,1-39.079,61.46Z" transform="translate(73.579 4.246)" fill="#FF571F"/>
        <path id="Path_4921" data-name="Path 4921" d="M-39,64.833a34.539,34.539,0,0,1-34.5-34.5A34.54,34.54,0,0,1-39-4.167a34.54,34.54,0,0,1,34.5,34.5A34.539,34.539,0,0,1-39,64.833Zm0-67.847A33.385,33.385,0,0,0-72.347,30.334,33.384,33.384,0,0,0-39,63.68,33.384,33.384,0,0,0-5.653,30.334,33.385,33.385,0,0,0-39-3.014Zm0,65.133h0A31.824,31.824,0,0,1-70.788,30.334,31.822,31.822,0,0,1-39-1.453h0A31.579,31.579,0,0,1-16.525,7.855a31.582,31.582,0,0,1,9.31,22.476A31.824,31.824,0,0,1-39,62.119ZM-39-.3h0A30.668,30.668,0,0,0-69.634,30.334,30.669,30.669,0,0,0-39,60.966,30.668,30.668,0,0,0-8.368,30.334,30.43,30.43,0,0,0-17.342,8.67,30.429,30.429,0,0,0-39-.3Z" transform="translate(73.5 4.167)" fill="#FF571F"/>
      </g>
      <g id="Path_4836" data-name="Path 4836" transform="translate(6.815 14.692)">
        <path id="Path_4922" data-name="Path 4922" d="M-14.262,27A26.891,26.891,0,0,0-31.51,33.248,27.477,27.477,0,0,0-39.053,9.681a1.351,1.351,0,0,0-1.917,0,27.477,27.477,0,0,0-7.544,23.568A26.891,26.891,0,0,0-65.761,27a1.36,1.36,0,0,0-1.356,1.358,27.183,27.183,0,0,0,27.1,27.262A27.184,27.184,0,0,0-12.906,28.358h0A1.36,1.36,0,0,0-14.262,27Zm-50.106,2.765a24.316,24.316,0,0,1,17.319,8.773c.016.019.028.039.041.056a24.5,24.5,0,0,1,5.6,14.264,24.5,24.5,0,0,1-22.961-23.1Zm19.553,7.217a24.792,24.792,0,0,1,4.8-24.353,24.791,24.791,0,0,1,4.8,24.348,27.281,27.281,0,0,0-4.8,8.81,27.281,27.281,0,0,0-4.8-8.81Zm6.2,15.871a24.5,24.5,0,0,1,5.638-14.312.889.889,0,0,0,.062-.07,24.315,24.315,0,0,1,17.261-8.708A24.5,24.5,0,0,1-38.617,52.853Z" transform="translate(67.696 -8.704)" fill="#FF571F"/>
        <path id="Path_4923" data-name="Path 4923" d="M-39.932,56.277a27.8,27.8,0,0,1-27.685-27.84A1.947,1.947,0,0,1-65.661,26.5a27.513,27.513,0,0,1,16.469,5.493A28.156,28.156,0,0,1-41.3,9.352a1.928,1.928,0,0,1,2.734,0,28.16,28.16,0,0,1,7.893,22.642A27.516,27.516,0,0,1-14.2,26.5h.024a1.943,1.943,0,0,1,1.931,1.936A27.8,27.8,0,0,1-39.932,56.277Zm-25.729-28.62a.806.806,0,0,0-.8.782A26.638,26.638,0,0,0-39.932,55.119,26.637,26.637,0,0,0-13.4,28.439a.784.784,0,0,0-.78-.781H-14.2a26.374,26.374,0,0,0-16.858,6.115l-1.176.982.24-1.518a26.982,26.982,0,0,0-7.384-23.07.774.774,0,0,0-1.1,0,26.985,26.985,0,0,0-7.383,23.068l.24,1.518-1.176-.982A26.374,26.374,0,0,0-65.661,27.658Zm24.945,25.9-.645-.039a25.078,25.078,0,0,1-23.47-23.12l-.037,0v-.553l.577-.016.032-.557a24.978,24.978,0,0,1,17.73,8.98A25.334,25.334,0,0,1-40.752,52.9ZM-63.668,30.469a23.926,23.926,0,0,0,21.72,21.842,24.1,24.1,0,0,0-5.422-13.268A23.866,23.866,0,0,0-63.668,30.469Zm24.519,23.08.037-.65a25.24,25.24,0,0,1,5.773-14.651,25.055,25.055,0,0,1,17.733-8.984l.646-.037-.038.65A25.084,25.084,0,0,1-38.5,53.511ZM-16.2,30.468a23.842,23.842,0,0,0-16.2,8.456l-.081.09a24.052,24.052,0,0,0-5.44,13.293A23.933,23.933,0,0,0-16.2,30.468ZM-39.935,47.729l-.547-1.683a26.593,26.593,0,0,0-4.7-8.621l.329-.272-.4.168-2.3-4.62,1.509,1.849a25.418,25.418,0,0,1,5.675-22.224l.432-.492.432.492a25.42,25.42,0,0,1,4.914,24.92l-.1.18a26.593,26.593,0,0,0-4.7,8.621Zm-4.291-10.957a27.711,27.711,0,0,1,4.291,7.382,27.715,27.715,0,0,1,4.292-7.384A24.26,24.26,0,0,0-39.932,13.6,24.261,24.261,0,0,0-44.226,36.772Z" transform="translate(67.617 -8.783)" fill="#FF571F"/>
      </g>
    </g>
  </g>
</svg>
