<svg xmlns="http://www.w3.org/2000/svg" width="24" height="20" viewBox="0 0 24 20">
  <g id="favourite_filled" transform="translate(0 -30)">
    <g id="Group_11577" data-name="Group 11577" transform="translate(0 30)">
      <path id="Path_4810" data-name="Path 4810" d="M17.625,30a5.9,5.9,0,0,0-3.549,1.158A7.742,7.742,0,0,0,12,33.515a7.742,7.742,0,0,0-2.076-2.357A5.9,5.9,0,0,0,6.375,30,6.311,6.311,0,0,0,0,36.527c0,4.02,3.419,6.771,8.6,10.934.879.707,1.875,1.509,2.911,2.363a.784.784,0,0,0,.987,0c1.036-.855,2.032-1.656,2.911-2.364C20.581,43.3,24,40.547,24,36.527A6.311,6.311,0,0,0,17.625,30Z" transform="translate(0 -30)" fill="#fefefe"/>
    </g>
  </g>
</svg>
