<svg xmlns="http://www.w3.org/2000/svg" width="28" height="26" viewBox="0 0 28 26">
  <g id="favourite" transform="translate(0 -22.543)">
    <path id="Path_4773" data-name="Path 4773" d="M19.837,22.543a7.923,7.923,0,0,0-3.709.911A8.241,8.241,0,0,0,14,25.06a8.242,8.242,0,0,0-2.129-1.606,7.923,7.923,0,0,0-3.709-.911A8.271,8.271,0,0,0,0,30.9c0,3.264,1.684,6.73,5,10.3a48.6,48.6,0,0,0,8.526,7.03l.47.311.47-.311A48.6,48.6,0,0,0,23,41.2c3.32-3.573,5-7.039,5-10.3A8.271,8.271,0,0,0,19.837,22.543Zm1.9,17.437A46.02,46.02,0,0,1,14,46.429,46.02,46.02,0,0,1,6.259,39.98c-3-3.232-4.527-6.287-4.527-9.08a6.516,6.516,0,0,1,6.431-6.583,6.334,6.334,0,0,1,5.145,2.634l.692.944.692-.944a6.334,6.334,0,0,1,5.145-2.634A6.516,6.516,0,0,1,26.268,30.9C26.268,33.693,24.745,36.748,21.741,39.98Z" fill="#FF571F"/>
  </g>
</svg>
