<svg xmlns="http://www.w3.org/2000/svg" width="71" height="59" viewBox="0 0 71 59">
  <g id="hq_" data-name="hq " transform="translate(79.167 6.168)">
    <g id="Group_11612" data-name="Group 11612" transform="translate(-79.167 -6.168)">
      <g id="Path_4839" data-name="Path 4839">
        <path id="Path_4924" data-name="Path 4924" d="M-34.4-5.1-60.244,9.631l-14.426,1.2a4.369,4.369,0,0,0-4,4.327V30.081A4.369,4.369,0,0,0-74.676,34.4l14.4,1.2,25.739,15.885a4.359,4.359,0,0,0,5.991-1.405,4.326,4.326,0,0,0,.651-2.283V-1.334a4.344,4.344,0,0,0-4.357-4.334A4.361,4.361,0,0,0-34.4-5.1ZM-75.766,30.081V15.157a1.457,1.457,0,0,1,1.33-1.447l13.176-1.093v20l-13.176-1.095A1.457,1.457,0,0,1-75.766,30.081ZM-30.8,47.8a1.447,1.447,0,0,1-1.452,1.445,1.453,1.453,0,0,1-.762-.216L-58.358,33.385v-21.5L-32.971-2.58a1.454,1.454,0,0,1,1.983.53,1.452,1.452,0,0,1,.193.715Z" transform="translate(79.262 6.263)" fill="#FF571F"/>
        <path id="Path_4925" data-name="Path 4925" d="M-32.154,52.832a4.912,4.912,0,0,1-2.593-.736L-60.372,36.282l-14.263-1.194a4.936,4.936,0,0,1-4.532-4.907V15.252a4.938,4.938,0,0,1,4.537-4.915l14.3-1.189L-34.6-5.517a4.941,4.941,0,0,1,2.445-.651h.006A4.942,4.942,0,0,1-27.2-1.245V47.906a4.9,4.9,0,0,1-.74,2.593A4.949,4.949,0,0,1-32.154,52.832Zm.008-57.824h0a3.792,3.792,0,0,0-1.861.493v0L-59.971,10.3-74.53,11.509a3.765,3.765,0,0,0-3.458,3.746V30.179a3.763,3.763,0,0,0,3.454,3.737l14.542,1.216.12.075L-34.125,51.1a3.775,3.775,0,0,0,5.18-1.216,3.739,3.739,0,0,0,.563-1.974V-1.245A3.761,3.761,0,0,0-32.146-4.992Zm0,54.931a2.041,2.041,0,0,1-1.07-.3L-58.853,33.81V11.638L-33.164-3a2.047,2.047,0,0,1,2.786.747,2.034,2.034,0,0,1,.272,1.007V47.905A2.04,2.04,0,0,1-32.147,49.939ZM-57.674,33.156-32.6,48.636a.888.888,0,0,0,1.313-.731V-1.245a.849.849,0,0,0-.116-.422.857.857,0,0,0-.523-.4.87.87,0,0,0-.654.087l-25.1,14.3Zm-2.9.2-13.817-1.149a2.035,2.035,0,0,1-1.872-2.027V15.252A2.035,2.035,0,0,1-74.4,13.219l13.821-1.147Zm-14.51-3.177a.863.863,0,0,0,.793.856l12.537,1.043V13.351l-12.54,1.04a.863.863,0,0,0-.79.862Z" transform="translate(79.167 6.168)" fill="#FF571F"/>
      </g>
      <g id="Path_4840" data-name="Path 4840" transform="translate(55.165 19.474)">
        <path id="Path_4926" data-name="Path 4926" d="M-31.117,11.134a1.464,1.464,0,0,0-.656,1.964h0a14.1,14.1,0,0,1,0,13.39,1.465,1.465,0,0,0,.741,1.936,1.465,1.465,0,0,0,1.879-.626,17.09,17.09,0,0,0,0-16.012,1.464,1.464,0,0,0-1.964-.655h0Z" transform="translate(32.523 -10.383)" fill="#FF571F"/>
        <path id="Path_4927" data-name="Path 4927" d="M-30.335,29.247a2.088,2.088,0,0,1-.844-.181,2.056,2.056,0,0,1-1.086-1.146,2.048,2.048,0,0,1,.044-1.577A13.5,13.5,0,0,0-32.2,13.478,2.5,2.5,0,0,1-31.29,10.7a2.062,2.062,0,0,1,2.764.921,17.658,17.658,0,0,1-.007,16.557A2.063,2.063,0,0,1-30.335,29.247Zm-.035-17.578a.872.872,0,0,0-.387.092v0a.86.86,0,0,0-.437.5.862.862,0,0,0,.046.663,14.653,14.653,0,0,1-.008,13.94.859.859,0,0,0,0,.626.866.866,0,0,0,.458.483.865.865,0,0,0,1.116-.373,16.464,16.464,0,0,0-.006-15.442.872.872,0,0,0-.508-.449A.85.85,0,0,0-30.37,11.669Z" transform="translate(32.428 -10.478)" fill="#FF571F"/>
      </g>
      <g id="Path_4841" data-name="Path 4841" transform="translate(63.658 13.945)">
        <path id="Path_4928" data-name="Path 4928" d="M-22.01,7.162a1.464,1.464,0,0,0-1.954-.686,1.465,1.465,0,0,0-.687,1.954l.021.042a25.725,25.725,0,0,1,0,24.417,1.465,1.465,0,0,0,.624,1.975,1.462,1.462,0,0,0,1.974-.623l.021-.043a28.843,28.843,0,0,0,0-27.035Z" transform="translate(25.39 -5.735)" fill="#FF571F"/>
        <path id="Path_4929" data-name="Path 4929" d="M-23.237,35.722a2.051,2.051,0,0,1-.95-.236,2.06,2.06,0,0,1-.875-2.776,25.071,25.071,0,0,0,0-23.86,2.078,2.078,0,0,1,.932-2.816,2.047,2.047,0,0,1,1.574-.087,2.054,2.054,0,0,1,1.169,1.041,29.418,29.418,0,0,1-.006,27.585,2.068,2.068,0,0,1-1.227,1.051A2.058,2.058,0,0,1-23.237,35.722Zm0-28.7a.857.857,0,0,0-.375.085.872.872,0,0,0-.408,1.16,26.268,26.268,0,0,1,.008,25,.869.869,0,0,0,.375,1.164.859.859,0,0,0,.662.057.858.858,0,0,0,.51-.426A28.257,28.257,0,0,0-22.44,7.538l-.011-.023A.869.869,0,0,0-23.235,7.023Z" transform="translate(25.294 -5.831)" fill="#FF571F"/>
      </g>
    </g>
  </g>
</svg>
