<svg xmlns="http://www.w3.org/2000/svg" width="24" height="24" viewBox="0 0 24 24">
  <g id="insta" transform="translate(-143.001 -4016)">
    <path id="Path_8" data-name="Path 8" d="M24.388,7.056a8.768,8.768,0,0,0-.558-2.912A6.149,6.149,0,0,0,20.317.633,8.8,8.8,0,0,0,17.405.075C16.12.014,15.712,0,12.453,0S8.786.014,7.506.07A8.775,8.775,0,0,0,4.594.628,5.857,5.857,0,0,0,2.465,2.016,5.909,5.909,0,0,0,1.082,4.14,8.792,8.792,0,0,0,.524,7.051C.463,8.336.449,8.744.449,12s.014,3.666.07,4.946a8.768,8.768,0,0,0,.558,2.912,6.148,6.148,0,0,0,3.512,3.512A8.8,8.8,0,0,0,7.5,23.93c1.28.056,1.688.07,4.947.07s3.667-.014,4.947-.07a8.771,8.771,0,0,0,2.912-.558A6.139,6.139,0,0,0,23.82,19.86a8.8,8.8,0,0,0,.558-2.912c.056-1.28.07-1.688.07-4.946s0-3.666-.061-4.946Zm-2.162,9.8a6.577,6.577,0,0,1-.413,2.227,3.982,3.982,0,0,1-2.279,2.279,6.6,6.6,0,0,1-2.227.412c-1.266.056-1.646.07-4.849.07s-3.587-.014-4.849-.07a6.577,6.577,0,0,1-2.227-.412A3.694,3.694,0,0,1,4,20.465a3.731,3.731,0,0,1-.9-1.378,6.6,6.6,0,0,1-.413-2.227c-.056-1.266-.07-1.646-.07-4.848s.014-3.587.07-4.848a6.574,6.574,0,0,1,.413-2.227,3.648,3.648,0,0,1,.9-1.379,3.726,3.726,0,0,1,1.379-.9,6.608,6.608,0,0,1,2.227-.413c1.266-.056,1.646-.07,4.849-.07s3.587.014,4.849.07a6.581,6.581,0,0,1,2.227.413,3.691,3.691,0,0,1,1.379.9,3.73,3.73,0,0,1,.9,1.379,6.6,6.6,0,0,1,.413,2.227c.056,1.266.07,1.646.07,4.848s-.014,3.577-.07,4.843Zm0,0" transform="translate(142.553 4016)" fill="#fff"/>
    <path id="Path_9" data-name="Path 9" d="M130.655,124.5a5.7,5.7,0,1,0,5.706,5.7A5.706,5.706,0,0,0,130.655,124.5Zm0,9.4a3.7,3.7,0,1,1,3.7-3.7A3.7,3.7,0,0,1,130.655,133.9Zm0,0" transform="translate(24.352 3897.799)" fill="#fff"/>
    <path id="Path_10" data-name="Path 10" d="M365.556,90.155A1.553,1.553,0,1,1,364,88.6,1.553,1.553,0,0,1,365.556,90.155Zm0,0" transform="translate(-202.656 3931.508)" fill="#fff"/>
  </g>
</svg>
