<svg id="instagram" xmlns="http://www.w3.org/2000/svg" xmlns:xlink="http://www.w3.org/1999/xlink" width="20" height="20" viewBox="0 0 20 20">
  <defs>
    <linearGradient id="linear-gradient" x1="0.5" y1="0.008" x2="0.5" y2="0.998" gradientUnits="objectBoundingBox">
      <stop offset="0" stop-color="#e09b3d"/>
      <stop offset="0.3" stop-color="#c74c4d"/>
      <stop offset="0.6" stop-color="#c21975"/>
      <stop offset="1" stop-color="#7024c4"/>
    </linearGradient>
    <linearGradient id="linear-gradient-2" y1="-0.451" y2="1.462" xlink:href="#linear-gradient"/>
    <linearGradient id="linear-gradient-3" y1="-1.396" y2="6.586" xlink:href="#linear-gradient"/>
  </defs>
  <path id="Path_4973" data-name="Path 4973" d="M14.042,0H5.958A5.965,5.965,0,0,0,0,5.958v8.084A5.965,5.965,0,0,0,5.958,20h8.084A5.965,5.965,0,0,0,20,14.042V5.958A5.965,5.965,0,0,0,14.042,0Zm3.946,14.042a3.946,3.946,0,0,1-3.946,3.946H5.958a3.946,3.946,0,0,1-3.946-3.946V5.958A3.946,3.946,0,0,1,5.958,2.012h8.084a3.946,3.946,0,0,1,3.946,3.946v8.084Z" fill="url(#linear-gradient)"/>
  <path id="Path_4974" data-name="Path 4974" d="M138.2,133a5.2,5.2,0,1,0,5.2,5.2A5.209,5.209,0,0,0,138.2,133Zm0,8.383a3.18,3.18,0,1,1,3.18-3.18A3.18,3.18,0,0,1,138.2,141.383Z" transform="translate(-128.204 -128.204)" fill="url(#linear-gradient-2)"/>
  <circle id="Ellipse_145" data-name="Ellipse 145" cx="1.232" cy="1.232" r="1.232" transform="translate(13.956 3.63)" fill="url(#linear-gradient-3)"/>
</svg>
