<svg xmlns="http://www.w3.org/2000/svg" width="177" height="51.999" viewBox="0 0 177 51.999">
  <g id="logo" transform="translate(45223.121 -15755.9)">
    <path id="Path_4960" data-name="Path 4960" d="M-43919.91,16927.8h23.727v-12.27h-3.066v-4.568h3.066v-7.973h-7.754v-8.258h-2.324v3.205h-4.555v-3.207h-9.082a5.392,5.392,0,0,0-5.266,5.512c0,.053,0,30.422,0,32.906A5.38,5.38,0,0,1-43919.91,16927.8Z" transform="translate(-1289.41 -1131.333)" fill="#80498c"/>
    <path id="Path_4961" data-name="Path 4961" d="M-44313.2,19318.035a5.656,5.656,0,0,1-3.141,1.264c-2.176,0-3.473-.984-5.227-2.639a5.721,5.721,0,0,0,5.7,5.258,5.716,5.716,0,0,0,4.809-2.621C-44312.957,19318.654-44313.2,19318.035-44313.2,19318.035Z" transform="translate(-895.622 -3536.43)" fill="#fdb913"/>
    <path id="Path_4962" data-name="Path 4962" d="M-41149.461,16017h-3.437v3.438h3.438Z" transform="translate(-4043.42 -259.38)" fill="#fdb913"/>
    <path id="Path_4963" data-name="Path 4963" d="M-39144.762,17713.7h-3.437v3.438h3.438Z" transform="translate(-6033.486 -1944.441)" fill="#00b0b5"/>
    <path id="Path_4964" data-name="Path 4964" d="M-38968.844,15755.9H-38974v5.156h5.156Z" transform="translate(-6206.482)" fill="#41ad49"/>
    <path id="Path_4965" data-name="Path 4965" d="M-40315.262,16538.8H-40323v7.736h7.738Z" transform="translate(-4866.668 -777.745)" fill="#d1223e"/>
    <path id="Path_4966" data-name="Path 4966" d="M-43890.953,21725.008a12.205,12.205,0,0,1-1.34-5.27,13.461,13.461,0,0,1,1.34-5.268h-29a5.268,5.268,0,0,0-5.254,5.268,5.269,5.269,0,0,0,5.254,5.27h29Z" transform="translate(-1289.371 -5917.639)" fill="#fff"/>
    <path id="Path_4967" data-name="Path 4967" d="M-45113.016,18313.4h-9.875a1.318,1.318,0,0,0-1.449,1.285v5.307a4.276,4.276,0,0,1,5.27,0c1.766,1.664,3.063,2.654,5.246,2.654a5.656,5.656,0,0,0,3.141-1.264l-.488-.574a5.706,5.706,0,0,1-1.262-3.586c0-.348.031-.889.09-1.463a4.489,4.489,0,0,1-.676-2.357S-45113.016,18313.4-45113.016,18313.4Z" transform="translate(-98.131 -2539.962)" fill="#fdb913"/>
    <path id="Path_4968" data-name="Path 4968" d="M-43357.137,17676.939a4.22,4.22,0,0,0-4.219-4.219,4.221,4.221,0,0,0-4.223,4.219,4.221,4.221,0,0,0,4.223,4.221A4.22,4.22,0,0,0-43357.137,17676.939Z" transform="translate(-1845.311 -1903.687)" fill="#fff"/>
    <path id="Path_4969" data-name="Path 4969" d="M-42976.539,18064.082a2.477,2.477,0,0,0,.469-.047,1.423,1.423,0,0,1-.879-1.314,1.422,1.422,0,0,1,1.422-1.422,1.427,1.427,0,0,1,1.316.877,2.586,2.586,0,0,0,.047-.465,2.372,2.372,0,0,0-2.375-2.371,2.368,2.368,0,0,0-2.367,2.371A2.369,2.369,0,0,0-42976.539,18064.082Z" transform="translate(-2229.436 -2287.708)" fill="#80498c"/>
    <path id="Path_4970" data-name="Path 4970" d="M-45179.746,16840.082a12.5,12.5,0,0,1-1.254-5.145,13.836,13.836,0,0,1,1.266-5.164.706.706,0,0,0-.027-.666.655.655,0,0,0-.559-.328h-4.617V16816.6H-45188v-3.187h3.066v-9.074h-7.941v-8.4h-3.441v3.189h-3.07v-3.189h-9.914a6.043,6.043,0,0,0-5.918,6.15v3.557h-5.8a1.987,1.987,0,0,0-2.1,2.008v5.512a.677.677,0,0,0,.363.607.632.632,0,0,0,.684-.07,3.752,3.752,0,0,1,2.324-.8,3.158,3.158,0,0,1,1.945.619,6.694,6.694,0,0,0,2.582,4.533c0,8.482,0,17.184,0,17.246l.023.3a6.028,6.028,0,0,0,5.879,5.488h29a.662.662,0,0,0,.566-.336A.708.708,0,0,0-45179.746,16840.082Zm-40-28.525a5.069,5.069,0,0,0-2.07.445v-4.342c0-.627.668-.658.8-.658h8.906a5.775,5.775,0,0,0,.926,2.555c-.016.3-.023.557-.023.74a6.811,6.811,0,0,0,1.414,4.162l.027.035a4.313,4.313,0,0,1-2.184.764c-1.859,0-2.984-.795-4.8-2.574A4.283,4.283,0,0,0-45219.75,16811.557Zm3.789,3.615a6.252,6.252,0,0,0,4.008,1.436,5.753,5.753,0,0,0,3.137-1.146,6.519,6.519,0,0,0,1.121.756,4.973,4.973,0,0,1-3.785,1.764A5.049,5.049,0,0,1-45215.961,16815.172Zm2.039,3.65a6.1,6.1,0,0,0,2.441.508,6.293,6.293,0,0,0,5.355-3.031.694.694,0,0,0,.066-.588.665.665,0,0,0-.4-.422,5.205,5.205,0,0,1-3.336-3.893c-.027-.145-.051-.293-.07-.441a5.31,5.31,0,0,0,3.2,1.074,5.6,5.6,0,0,0,5.488-5.7,5.6,5.6,0,0,0-5.488-5.7,5.564,5.564,0,0,0-5.445,5.023h-1.809v-3.557a4.716,4.716,0,0,1,4.617-4.8h8.613v3.191h5.672v-3.191h.84v8.4h7.941v6.371h-3.066v5.891h3.066v10.822h-23.086a5.842,5.842,0,0,0-4.594,2.3C-45213.918,16827.992-45213.918,16823.424-45213.922,16818.822Zm3.035-12.5a4.3,4.3,0,0,1,4.219-4.383,4.3,4.3,0,0,1,4.219,4.383,4.3,4.3,0,0,1-4.219,4.385A4.305,4.305,0,0,1-45210.887,16806.326Zm9.488,26.682h19.285a12.106,12.106,0,0,0-.18,1.387h-23.363a.664.664,0,0,0-.652.676.665.665,0,0,0,.652.674h23.359a12.378,12.378,0,0,0,.168,1.385h-19.27a.666.666,0,0,0-.648.676.666.666,0,0,0,.648.678h19.582c.152.535.316,1,.465,1.377h-27.965a4.712,4.712,0,0,1-4.6-4.789,4.712,4.712,0,0,1,4.6-4.789h27.984c-.148.377-.309.846-.461,1.377h-19.609a.661.661,0,0,0-.648.674A.663.663,0,0,0-45201.4,16833.008Z" transform="translate(0 -1033.196)" fill="#80498c"/>
    <path id="Path_4971" data-name="Path 4971" d="M-44037.734,18569.273c-.332.121-.4.775-.148,1.461s.723,1.146,1.055,1.025.4-.775.148-1.463S-44037.4,18569.152-44037.734,18569.273Z" transform="translate(-1177.282 -2794.171)" fill="#80498c"/>
    <path id="Path_4972" data-name="Path 4972" d="M-36857.641,18200.609v-3.506h-.012v-.012h-.641l-.84,1.936-.867-1.936h-.633v.012h0v3.506h.434v-.039h0v-2.979l.9,2.053h.281l.9-2.037v2.963h.008v.039Zm-3.348-3.105h0v-.412h-2.8v.012h-.02v.414h1.176v3.092h.465v-.039h.008v-3.053h1.164Zm-5.074,32.145a.926.926,0,0,0,.055-.852q-.656-1.846-1.551-4.5l-.754-2.248-.77-2.25q-1.852-5.464-3.277-8.93a1.106,1.106,0,0,0-.574-.615q.686-1.257,1.633-3.074l.809-1.535.809-1.537q1.963-3.732,3.387-6.064a.97.97,0,0,0,.125-.867,1.145,1.145,0,0,0-.508-.615,1.163,1.163,0,0,0-.8-.152.978.978,0,0,0-.711.5q-1.535,2.5-4.008,7.211l-.945,1.816-.961,1.816q-1.1,2.039-2.016,3.59c.074-5.225.109-9.553.109-13.764a1.058,1.058,0,0,0-.34-.824,1.139,1.139,0,0,0-.758-.266,1.1,1.1,0,0,0-.754.266,1.058,1.058,0,0,0-.34.824c-.012,4.518-.059,9.367-.137,15.33l-.113,7.8-.027,2.012-.027,2.012c-.027,1.537-.109,3.111-.246,4.238a.859.859,0,0,0,.246.8,1.007,1.007,0,0,0,.727.264,1.261,1.261,0,0,0,.785-.264,1.128,1.128,0,0,0,.438-.8c.129-1.062.211-2.566.246-4.029l.027-1.9.027-1.9.082-5.549q1-1.479,2.043-3.256,1.307,3.27,3.074,8.5l.727,2.139.727,2.15q.838,2.49,1.48,4.262a1.09,1.09,0,0,0,.605.672,1.148,1.148,0,0,0,.809.041A1,1,0,0,0-36866.062,18229.648Zm-15.9-4.18a23.213,23.213,0,0,0,.3-4.113l-.027-1.051-.012-1.049c-.027-.889-.043-1.574-.043-2.057v-2.752l-.012-2.752q-.018-3.659,0-5.5v-1.121l-.016-1.135a18.3,18.3,0,0,0-.191-2.24,7.533,7.533,0,0,0-1.77-3.986,4.928,4.928,0,0,0-3.043-1.588,4.917,4.917,0,0,0-3.332.68,6.946,6.946,0,0,0-2.3,2.512,8.494,8.494,0,0,0-1.152,3.275,14.21,14.21,0,0,0-.1,1.531v1.52l-.191,8.381.027,1.873.016,1.887c0,1.615.016,2.869.055,3.758l.012.439v.439c.02.35.031.648.043.895a17.6,17.6,0,0,0,.176,1.844,6.453,6.453,0,0,0,1.344,3.275q2,2.326,6.09,1.5a4.859,4.859,0,0,0,2.758-1.547A5.86,5.86,0,0,0-36881.961,18225.469Zm-1.891-4.172a18.805,18.805,0,0,1-.344,4.072,3.018,3.018,0,0,1-1.988,2.254,4.915,4.915,0,0,1-3.1.113,2.872,2.872,0,0,1-1.973-2.439,11.731,11.731,0,0,1-.234-1.787c-.008-.227-.02-.514-.027-.865l-.016-.4-.012-.383q-.07-1.462-.07-3.928l-.012-1.959-.027-1.957.191-8.381v-.738l-.012-.766a9.069,9.069,0,0,1,.121-1.5,6,6,0,0,1,1.605-3.162,2.965,2.965,0,0,1,3.086-1.021q1.986.554,2.508,3.262a14.6,14.6,0,0,1,.207,2.34c.008.3.008.676,0,1.121v.523q-.012.3-.012.5,0,1.913.012,5.5l.012,2.752v2.752c0,.473.016,1.148.043,2.027l.027,1.035Zm-12.555,4.172a23.168,23.168,0,0,0,.3-4.113l-.031-1.051-.012-1.049c-.027-.889-.043-1.574-.043-2.057v-2.752l-.012-2.752q-.018-3.659,0-5.5v-1.121l-.016-1.135a18.3,18.3,0,0,0-.191-2.24,7.533,7.533,0,0,0-1.77-3.986,4.928,4.928,0,0,0-3.043-1.588,4.921,4.921,0,0,0-3.332.68,6.946,6.946,0,0,0-2.3,2.512,8.559,8.559,0,0,0-1.152,3.275,14.21,14.21,0,0,0-.1,1.531v1.52l-.191,8.381.027,1.873.016,1.887c0,1.615.016,2.869.055,3.758l.012.439v.439c.02.35.031.648.043.895a17.6,17.6,0,0,0,.176,1.844,6.453,6.453,0,0,0,1.344,3.275q2,2.326,6.09,1.5a4.846,4.846,0,0,0,2.758-1.547A5.86,5.86,0,0,0-36896.406,18225.469Zm-1.891-4.172a18.805,18.805,0,0,1-.344,4.072,3.018,3.018,0,0,1-1.988,2.254,4.915,4.915,0,0,1-3.1.113,2.872,2.872,0,0,1-1.973-2.439,11.731,11.731,0,0,1-.234-1.787c-.008-.227-.02-.514-.027-.865l-.012-.4-.016-.383q-.07-1.462-.07-3.928l-.012-1.959-.027-1.957.191-8.381v-.738l-.012-.766a9.069,9.069,0,0,1,.121-1.5,6,6,0,0,1,1.605-3.162,2.965,2.965,0,0,1,3.086-1.021c1.324.369,2.164,1.455,2.508,3.262a14.6,14.6,0,0,1,.207,2.34c.008.3.008.676,0,1.121v.523q-.012.3-.012.5,0,1.913.012,5.5l.016,2.752v2.752c0,.473.012,1.148.039,2.027l.027,1.035Zm-15.488-7.963a9.239,9.239,0,0,0-2.539-1.2,7,7,0,0,0,1.906-1.414q2.268-2.382,1.715-7.459-.439-4.011-2.949-5.713a8.355,8.355,0,0,0-3.316-1.24c-.5-.086-1.1-.158-1.8-.217l-.879-.072-.863-.072a.873.873,0,0,0-1,.693,1.218,1.218,0,0,0,.258,1.254,1.548,1.548,0,0,0-.027.275q0,4.989.219,14.959t.223,14.947a1.114,1.114,0,0,0,.3.807,1.232,1.232,0,0,0,.207.881.959.959,0,0,0,.848.389,12.4,12.4,0,0,0,7.75-2.539q3.182-2.669,3.016-7.775Q-36910.85,18215.381-36913.785,18213.334Zm-4.363-2.887a10.53,10.53,0,0,1-2.754.463q-.164-7.69-.168-12.523a11.3,11.3,0,0,1,3.816.867q1.875.923,2.344,4.039a11.333,11.333,0,0,1,.1,2.941,5.244,5.244,0,0,1-1.016,2.7A4.881,4.881,0,0,1-36918.148,18210.447Zm5.215,9.061a7.242,7.242,0,0,1-2.156,6.318,9.167,9.167,0,0,1-5.539,1.963q-.012-4.89-.219-14.3l.672.131.656.129c.531.105.98.2,1.344.289a12.334,12.334,0,0,1,2.566.879Q-36913.2,18216.089-36912.934,18219.508Zm-14.012,10.256a1.049,1.049,0,0,0,.352-.828q0-6.9-.2-15.7l-.184-7.85-.211-7.85a1.078,1.078,0,0,0-.379-.814,1.163,1.163,0,0,0-.789-.281,1.146,1.146,0,0,0-.773.268,1.027,1.027,0,0,0-.324.828l.211,7.85.2,7.85q.193,8.807.2,15.7a1.049,1.049,0,0,0,.352.828,1.148,1.148,0,0,0,.777.266A1.145,1.145,0,0,0-36926.945,18229.764Zm-5.469-11.2q.041-2.511.012-5.859l-.012-1.4-.016-1.414q-.012-1.617-.055-2.814-.1-3.187-.422-5.613a5.479,5.479,0,0,0-3.34-4.416,11.09,11.09,0,0,0-5.672-.908,11.687,11.687,0,0,0-1.379.174.894.894,0,0,0-.8.75,1.291,1.291,0,0,0,.324,1.1,1.258,1.258,0,0,0-.113.477q-.111,3.319-.2,7.475l-.1,7.475q-.141,9.943-.309,14.936a1.62,1.62,0,0,0,.043.375,1.165,1.165,0,0,0,.254.836,1,1,0,0,0,.832.42,11.416,11.416,0,0,0,6.883-1.992,8.759,8.759,0,0,0,3.887-5.975,14.822,14.822,0,0,0,.168-1.8l.016-.908Zm-2.211-1.875q0,2.552-.113,4.5a6.265,6.265,0,0,1-2.477,4.689,9.354,9.354,0,0,1-5,1.9q.111-3.217.184-7.287l.1-7.287q.129-9.595.3-14.574a1,1,0,0,0,0-.217,8.756,8.756,0,0,1,4.168.592,3.664,3.664,0,0,1,2.379,3.031q.264,2.165.352,5.064c.02.7.031,1.549.043,2.539l.027,2.539.027,2.252Zm-12.43,12.947a.955.955,0,0,0,.059-.877q-.492-1.38-1.309-3.521l-.664-1.74-.66-1.754q-1.547-4.184-2.395-7.1a9.926,9.926,0,0,0,3.7-4.5,12.849,12.849,0,0,0,1.086-6.037q-.27-4.515-3.453-6.412a9.971,9.971,0,0,0-3.445-1.164c-.488-.078-1.105-.154-1.848-.23l-.914-.1-.9-.086a.857.857,0,0,0-1.039.705,1.25,1.25,0,0,0,.395,1.309q0,5.06-.059,15.082l-.043,7.547-.027,8.158a1.061,1.061,0,0,0,.367.85,1.13,1.13,0,0,0,.773.271,1.158,1.158,0,0,0,.773-.271,1.086,1.086,0,0,0,.352-.85c0-2.875.016-7.588.043-12.889a8.923,8.923,0,0,0,2.168-.4q.832,2.833,2.352,6.916l.648,1.711.648,1.7q.785,2.071,1.266,3.422a1.164,1.164,0,0,0,.621.689,1.215,1.215,0,0,0,.844.045A1.037,1.037,0,0,0-36947.055,18229.635Zm-9.191-15.93q.053-9.6.055-15.125a16.623,16.623,0,0,1,3.719.777q2.643.976,2.969,4.744a9.8,9.8,0,0,1-1.492,6.326A6.53,6.53,0,0,1-36956.246,18213.705Zm-4.164,15.73a1.064,1.064,0,0,0,.16-.881c-.4-1.844-1.059-4.494-1.93-7.77a1.036,1.036,0,0,0,.5-.537,1.282,1.282,0,0,0,.109-.729.846.846,0,0,0-1.035-.812h-.137q-1.717-6.442-2.371-10.281-.709-4.09-1.965-11.137a.891.891,0,0,0-1.02-.8,1.034,1.034,0,0,0-1.09.8q-.768,2.962-1.445,7.09-.217,1.377-.559,3.578l-.258,1.789-.273,1.789q-.492,3.167-1.309,8.549l-.625,4.279-.656,4.281a1.191,1.191,0,0,0,.2.881,1.24,1.24,0,0,0,.7.455,1,1,0,0,0,.766-.057.886.886,0,0,0,.449-.687l.625-4.129.613-4.115q1.254-.1,3.285-.055l1.648.055c.625.008,1.172.014,1.637.014.926,3.486,1.617,6.26,2.027,8.141a.93.93,0,0,0,.5.689,1.03,1.03,0,0,0,.777.055A1.153,1.153,0,0,0-36960.41,18229.436Zm-4.562-10.646-1.406-.014-1.418-.041q-1.711-.041-2.832.014.639-4.266,1.008-6.621l.34-2.215.328-2.217q.41-2.657.734-4.445l.953,5.506Q-36966.6,18212.6-36964.973,18218.789Z" transform="translate(-8188.481 -2422.284)" fill="#FF571F"/>
  </g>
</svg>
