<svg xmlns="http://www.w3.org/2000/svg" width="77" height="60" viewBox="0 0 77 60">
  <g id="move" transform="translate(467.5 37.5)">
    <g id="Group_11727" data-name="Group 11727" transform="translate(-467.5 -35.491)">
      <path id="Path_4979" data-name="Path 4979" d="M-391.913-2.763l-28.074-23.179a4.717,4.717,0,0,0-6.638.634,4.713,4.713,0,0,0-1.079,3v7.469a1.571,1.571,0,0,1-1.572,1.571h-33.008A4.714,4.714,0,0,0-467-8.557V10.3a4.714,4.714,0,0,0,4.715,4.713h33.008a1.571,1.571,0,0,1,1.572,1.571v7.469a4.714,4.714,0,0,0,4.718,4.711,4.717,4.717,0,0,0,3-1.079L-391.913,4.5a4.712,4.712,0,0,0,.631-6.635,4.715,4.715,0,0,0-.631-.631Zm-2,4.844-28.077,23.179a1.572,1.572,0,0,1-2.213-.21,1.571,1.571,0,0,1-.36-1V16.579a4.714,4.714,0,0,0-4.715-4.713h-33.008a1.571,1.571,0,0,1-1.572-1.571V-8.557a1.571,1.571,0,0,1,1.572-1.571h33.008a4.714,4.714,0,0,0,4.715-4.713h0V-22.31a1.571,1.571,0,0,1,1.572-1.571,1.573,1.573,0,0,1,1,.36L-393.911-.342a1.571,1.571,0,0,1,.211,2.212,1.565,1.565,0,0,1-.211.211Z" transform="translate(467.101 27.122)" fill="#FF571F"/>
      <path id="Path_4980" data-name="Path 4980" d="M-423.389,28.459a4.783,4.783,0,0,1-3.4-1.408,4.779,4.779,0,0,1-1.412-3.4V16.18a1.475,1.475,0,0,0-1.474-1.473h-33.01A4.818,4.818,0,0,1-467.5,9.9V-8.959a4.818,4.818,0,0,1,4.814-4.812h33.01a1.475,1.475,0,0,0,1.474-1.473v-7.469a4.821,4.821,0,0,1,1.1-3.061,4.782,4.782,0,0,1,3.254-1.727,4.785,4.785,0,0,1,3.523,1.079L-392.248-3.24a4.819,4.819,0,0,1,.644.644,4.779,4.779,0,0,1,1.082,3.52,4.779,4.779,0,0,1-1.726,3.254l-28.076,23.18a4.826,4.826,0,0,1-3.062,1.1Zm-39.3-42.033A4.622,4.622,0,0,0-467.3-8.959V9.9a4.622,4.622,0,0,0,4.617,4.615h33.01a1.672,1.672,0,0,1,1.67,1.669v7.469a4.584,4.584,0,0,0,1.354,3.263,4.589,4.589,0,0,0,3.263,1.35h0a4.63,4.63,0,0,0,2.938-1.056l28.076-23.179a4.619,4.619,0,0,0,.618-6.5,4.648,4.648,0,0,0-.618-.618L-420.449-26.27a4.588,4.588,0,0,0-3.379-1.035,4.588,4.588,0,0,0-3.122,1.656,4.624,4.624,0,0,0-1.057,2.936v7.469a1.672,1.672,0,0,1-1.67,1.669Zm39.3,38.893q-.08,0-.161-.008a1.659,1.659,0,0,1-1.129-.6,1.672,1.672,0,0,1-.383-1.063V16.18a4.622,4.622,0,0,0-4.618-4.615h-33.01a1.672,1.672,0,0,1-1.67-1.669V-8.959a1.672,1.672,0,0,1,1.67-1.669h33.01a4.622,4.622,0,0,0,4.618-4.615v-7.469a1.672,1.672,0,0,1,1.67-1.67,1.674,1.674,0,0,1,1.064.383L-394.246-.819a1.659,1.659,0,0,1,.6,1.129,1.657,1.657,0,0,1-.375,1.222,1.64,1.64,0,0,1-.224.224h0l-28.079,23.181A1.659,1.659,0,0,1-423.385,25.319Zm-39.3-35.751a1.475,1.475,0,0,0-1.474,1.473V9.9a1.475,1.475,0,0,0,1.474,1.473h33.01a4.818,4.818,0,0,1,4.814,4.812v7.469a1.477,1.477,0,0,0,.338.939,1.465,1.465,0,0,0,1,.528,1.464,1.464,0,0,0,1.078-.331L-394.371,1.6a1.465,1.465,0,0,0,.2-.2,1.463,1.463,0,0,0,.331-1.078,1.465,1.465,0,0,0-.529-1L-422.45-23.849a1.478,1.478,0,0,0-.939-.338,1.475,1.475,0,0,0-1.473,1.473v7.469a4.818,4.818,0,0,1-4.814,4.812Z" transform="translate(467.5 27.523)" fill="#FF571F"/>
    </g>
    <g id="Group_11728" data-name="Group 11728" transform="translate(-455.051 -37.5)">
      <path id="Path_4981" data-name="Path 4981" d="M-401.389-33.779h19.329a1.611,1.611,0,0,0,1.611-1.611A1.611,1.611,0,0,0-382.061-37h-19.329A1.611,1.611,0,0,0-403-35.389,1.611,1.611,0,0,0-401.389-33.779Z" transform="translate(403.101 37.101)" fill="#FF571F"/>
      <path id="Path_4982" data-name="Path 4982" d="M-382.46-34.077h-19.329a1.713,1.713,0,0,1-1.711-1.711,1.713,1.713,0,0,1,1.711-1.711h19.329a1.713,1.713,0,0,1,1.711,1.711A1.713,1.713,0,0,1-382.46-34.077ZM-401.789-37.3a1.512,1.512,0,0,0-1.51,1.51,1.512,1.512,0,0,0,1.51,1.51h19.329a1.512,1.512,0,0,0,1.51-1.51,1.512,1.512,0,0,0-1.51-1.51Z" transform="translate(403.5 37.5)" fill="#FF571F"/>
    </g>
    <g id="Group_11729" data-name="Group 11729" transform="translate(-461.057 -29.446)">
      <path id="Path_4983" data-name="Path 4983" d="M-433.389,6.221h25.772a1.611,1.611,0,0,0,1.611-1.611A1.611,1.611,0,0,0-407.618,3h-25.772A1.611,1.611,0,0,0-435,4.611,1.611,1.611,0,0,0-433.389,6.221Z" transform="translate(435.101 -2.899)" fill="#FF571F"/>
      <path id="Path_4984" data-name="Path 4984" d="M-408.017,5.923h-25.772A1.713,1.713,0,0,1-435.5,4.211,1.713,1.713,0,0,1-433.789,2.5h25.772a1.713,1.713,0,0,1,1.711,1.711A1.713,1.713,0,0,1-408.017,5.923ZM-433.789,2.7a1.512,1.512,0,0,0-1.51,1.51,1.512,1.512,0,0,0,1.51,1.51h25.772a1.512,1.512,0,0,0,1.51-1.51,1.512,1.512,0,0,0-1.51-1.51Z" transform="translate(435.5 -2.5)" fill="#FF571F"/>
    </g>
    <g id="Group_11730" data-name="Group 11730" transform="translate(-455.051 19.077)">
      <path id="Path_4985" data-name="Path 4985" d="M-382.061,251h-19.329A1.611,1.611,0,0,0-403,252.611a1.611,1.611,0,0,0,1.611,1.611h19.329a1.611,1.611,0,0,0,1.611-1.611A1.611,1.611,0,0,0-382.061,251Z" transform="translate(403.101 -250.899)" fill="#FF571F"/>
      <path id="Path_4986" data-name="Path 4986" d="M-382.46,253.923h-19.329a1.713,1.713,0,0,1-1.711-1.711,1.713,1.713,0,0,1,1.711-1.711h19.329a1.713,1.713,0,0,1,1.711,1.711A1.713,1.713,0,0,1-382.46,253.923Zm-19.329-3.221a1.512,1.512,0,0,0-1.51,1.51,1.512,1.512,0,0,0,1.51,1.51h19.329a1.512,1.512,0,0,0,1.51-1.51,1.512,1.512,0,0,0-1.51-1.51Z" transform="translate(403.5 -250.5)" fill="#FF571F"/>
    </g>
    <g id="Group_11731" data-name="Group 11731" transform="translate(-461.057 11.024)">
      <path id="Path_4987" data-name="Path 4987" d="M-407.618,211h-25.772A1.611,1.611,0,0,0-435,212.611a1.611,1.611,0,0,0,1.611,1.611h25.772a1.611,1.611,0,0,0,1.611-1.611A1.611,1.611,0,0,0-407.618,211Z" transform="translate(435.101 -210.899)" fill="#FF571F"/>
      <path id="Path_4988" data-name="Path 4988" d="M-408.017,213.923h-25.772a1.713,1.713,0,0,1-1.711-1.711,1.713,1.713,0,0,1,1.711-1.711h25.772a1.713,1.713,0,0,1,1.711,1.711A1.713,1.713,0,0,1-408.017,213.923Zm-25.772-3.221a1.512,1.512,0,0,0-1.51,1.51,1.512,1.512,0,0,0,1.51,1.51h25.772a1.512,1.512,0,0,0,1.51-1.51,1.512,1.512,0,0,0-1.51-1.51Z" transform="translate(435.5 -210.5)" fill="#FF571F"/>
    </g>
  </g>
</svg>
