<svg xmlns="http://www.w3.org/2000/svg" width="60" height="65" viewBox="0 0 60 65">
  <g id="mp3" transform="translate(166.5 18.5)">
    <g id="Path_5015" data-name="Path 5015" transform="translate(-166.5 -18.5)">
      <path id="Path_5010" data-name="Path 5010" d="M-111.271-12.913h-1.15v-2.462A2.627,2.627,0,0,0-115.051-18h-2.465a2.627,2.627,0,0,0-2.63,2.626v2.462h-2.465v-2.462A2.627,2.627,0,0,0-125.241-18h-2.465a2.627,2.627,0,0,0-2.63,2.626v2.462h-31.72A3.941,3.941,0,0,0-166-8.974V41.735a3.941,3.941,0,0,0,3.944,3.939h50.784a3.941,3.941,0,0,0,3.944-3.939V-8.974A3.941,3.941,0,0,0-111.271-12.913Zm-6.245-2.462h2.465v2.462h-2.465Zm-10.19,0h2.465v2.462h-2.465Zm17.75,57.109a1.314,1.314,0,0,1-1.315,1.313h-50.784a1.314,1.314,0,0,1-1.315-1.313V-8.974a1.314,1.314,0,0,1,1.315-1.313h50.784a1.314,1.314,0,0,1,1.315,1.313Z" transform="translate(166.663 18.663)" fill="#FF571F"/>
      <path id="Path_5011" data-name="Path 5011" d="M-111.1,46.5H-161.9a4.6,4.6,0,0,1-4.6-4.6V-8.816a4.6,4.6,0,0,1,4.6-4.6h31.068v-1.806a3.29,3.29,0,0,1,3.288-3.283h2.466a3.29,3.29,0,0,1,3.288,3.283v1.806h1.151v-1.806a3.29,3.29,0,0,1,3.288-3.283h2.466a3.29,3.29,0,0,1,3.288,3.283v1.806h.493a4.6,4.6,0,0,1,4.6,4.6V41.9A4.6,4.6,0,0,1-111.1,46.5ZM-161.9-12.1a3.29,3.29,0,0,0-3.288,3.283V41.9a3.289,3.289,0,0,0,3.288,3.283H-111.1a3.289,3.289,0,0,0,3.288-3.283V-8.816A3.29,3.29,0,0,0-111.1-12.1h-1.808v-3.119a1.974,1.974,0,0,0-1.973-1.97h-2.466a1.974,1.974,0,0,0-1.973,1.97V-12.1H-123.1v-3.119a1.974,1.974,0,0,0-1.973-1.97h-2.466a1.974,1.974,0,0,0-1.973,1.97V-12.1ZM-111.1,43.874H-161.9a1.974,1.974,0,0,1-1.973-1.97V-8.816a1.974,1.974,0,0,1,1.973-1.97H-111.1a1.974,1.974,0,0,1,1.973,1.97V41.9A1.974,1.974,0,0,1-111.1,43.874ZM-161.9-9.472a.657.657,0,0,0-.658.657V41.9a.658.658,0,0,0,.658.657H-111.1a.658.658,0,0,0,.658-.657V-8.816a.657.657,0,0,0-.658-.657Zm47.671-2.626h-3.781v-3.775h3.781Zm-2.466-1.313h1.151v-1.149h-1.151Zm-7.726,1.313H-128.2v-3.775h3.781Zm-2.466-1.313h1.151v-1.149h-1.151Z" transform="translate(166.5 18.5)" fill="#FF571F"/>
    </g>
    <g id="Path_5016" data-name="Path 5016" transform="translate(-161.62 -9.153)">
      <path id="Path_5012" data-name="Path 5012" d="M-140.538-10.447a21.9,21.9,0,0,0-21.784,22.022A21.9,21.9,0,0,0-140.538,33.6a21.9,21.9,0,0,0,21.784-22.022,21.9,21.9,0,0,0-21.784-22.022Zm0,41.679a19.553,19.553,0,0,1-19.446-19.658A19.553,19.553,0,0,1-140.538-8.085a19.553,19.553,0,0,1,19.446,19.658A19.553,19.553,0,0,1-140.538,31.232Z" transform="translate(165.659 13.813)" fill="#FF571F"/>
      <path id="Path_5013" data-name="Path 5013" d="M-140.375,34.424a22.593,22.593,0,0,1-22.447-22.685,22.593,22.593,0,0,1,22.447-22.685,22.593,22.593,0,0,1,22.447,22.685A22.593,22.593,0,0,1-140.375,34.424Zm0-44.185a21.412,21.412,0,0,0-21.274,21.5,21.412,21.412,0,0,0,21.274,21.5,21.412,21.412,0,0,0,21.274-21.5A21.412,21.412,0,0,0-140.375-9.761Zm0,41.813a20.232,20.232,0,0,1-20.1-20.314,20.232,20.232,0,0,1,20.1-20.314,20.232,20.232,0,0,1,20.1,20.314A20.232,20.232,0,0,1-140.375,32.051Zm0-39.443A19.05,19.05,0,0,0-159.3,11.737a19.05,19.05,0,0,0,18.928,19.129,19.05,19.05,0,0,0,18.928-19.129A19.051,19.051,0,0,0-140.375-7.392Z" transform="translate(165.496 13.649)" fill="#FF571F"/>
    </g>
    <g id="Path_5018" data-name="Path 5018" transform="translate(-142.47 9.238)">
      <path id="Path_5014" data-name="Path 5014" d="M-137.663,8.717l-7.961-5.307a1.326,1.326,0,0,0-1.84.368,1.328,1.328,0,0,0-.223.738V15.129a1.327,1.327,0,0,0,1.327,1.327,1.323,1.323,0,0,0,.736-.223l7.961-5.307a1.327,1.327,0,0,0,.369-1.84A1.32,1.32,0,0,0-137.663,8.717Zm-7.37,3.933V6.994l4.246,2.829Z" transform="translate(148.35 -2.523)" fill="#FF571F"/>
      <path id="Path_5015-2" data-name="Path 5015" d="M-146.2,17.283a1.993,1.993,0,0,1-1.99-1.99V4.679a1.987,1.987,0,0,1,.334-1.107,1.991,1.991,0,0,1,2.761-.551l7.959,5.306a1.976,1.976,0,0,1,.555.556,1.993,1.993,0,0,1-.553,2.758l-7.961,5.307A1.982,1.982,0,0,1-146.2,17.283Zm0-13.269a.663.663,0,0,0-.553.295.666.666,0,0,0-.111.37V15.293a.684.684,0,0,0,1.031.552l7.962-5.307a.665.665,0,0,0,.184-.921.655.655,0,0,0-.183-.184h0l-7.961-5.307A.659.659,0,0,0-146.2,4.014Zm.662,10.037V5.918l6.106,4.068Zm1.327-5.655v3.178l2.385-1.588Z" transform="translate(148.187 -2.686)" fill="#FF571F"/>
    </g>
  </g>
</svg>
