<svg xmlns="http://www.w3.org/2000/svg" width="65" height="59" viewBox="0 0 65 59">
  <g id="mute" transform="translate(984.813 -69)">
    <g id="Path_4839" data-name="Path 4839" transform="translate(-984.813 69)">
      <path id="Path_4944" data-name="Path 4944" d="M-941.066,71.4l-24.466,14.684-13.661,1.2a4.271,4.271,0,0,0-3.784,4.311v14.9a4.272,4.272,0,0,0,3.779,4.313l13.635,1.194,24.371,15.846a4.006,4.006,0,0,0,5.576-1.244q.05-.079.1-.161a4.5,4.5,0,0,0,.617-2.276V75.152a4.229,4.229,0,0,0-4.125-4.327h0A3.957,3.957,0,0,0-941.066,71.4ZM-980.228,106.5V91.605a1.424,1.424,0,0,1,1.259-1.442l12.476-1.089V109.03l-12.476-1.093A1.425,1.425,0,0,1-980.228,106.5Zm42.581,17.679a1.411,1.411,0,0,1-1.375,1.442,1.327,1.327,0,0,1-.721-.215l-24-15.613V88.342l24.038-14.432a1.335,1.335,0,0,1,1.845.47c.011.018.021.036.031.055a1.5,1.5,0,0,1,.185.715Z" transform="translate(983.641 -70.165)" fill="#FF571F"/>
      <path id="Path_4945" data-name="Path 4945" d="M-940.179,128a4.574,4.574,0,0,1-2.5-.747l-24.27-15.757-13.5-1.18a4.913,4.913,0,0,1-4.367-4.977v-14.9a4.909,4.909,0,0,1,4.37-4.976l13.539-1.192,24.369-14.616A4.147,4.147,0,0,1-940.173,69a4.891,4.891,0,0,1,4.763,4.983v49.021a5.2,5.2,0,0,1-.713,2.622A4.717,4.717,0,0,1-940.179,128Zm0-57.663h0a3.354,3.354,0,0,0-1.724.483l-24.615,14.763L-980.336,86.8a3.6,3.6,0,0,0-3.2,3.649v14.89a3.6,3.6,0,0,0,3.2,3.648l13.8,1.206,24.532,15.926a3.4,3.4,0,0,0,4.725-1.052c.027-.042.052-.084.077-.128a3.781,3.781,0,0,0,.518-1.925V74a3.583,3.583,0,0,0-3.488-3.661Zm0,54.779h0a1.949,1.949,0,0,1-1.057-.315l-24.327-15.807v-22.2l24.385-14.624a1.92,1.92,0,0,1,1.524-.208,2.012,2.012,0,0,1,1.221.984,2.191,2.191,0,0,1,.269,1.049v49.014a2.146,2.146,0,0,1-.589,1.492,1.949,1.949,0,0,1-1.421.618Zm-24.109-16.859,23.727,15.413a.7.7,0,0,0,.388.117h0a.715.715,0,0,0,.518-.227.794.794,0,0,0,.215-.547V73.991a.794.794,0,0,0-.1-.38.742.742,0,0,0-.449-.361.7.7,0,0,0-.561.077l-23.745,14.239Zm-2.749.334-13.18-1.152a2.074,2.074,0,0,1-1.845-2.1v-14.9a2.075,2.075,0,0,1,1.841-2.108l13.184-1.15Zm-13.752-3.264a.765.765,0,0,0,.681.772l11.8,1.034v-18.5l-11.8,1.03a.766.766,0,0,0-.677.779Z" transform="translate(984.813 -69)" fill="#FF571F"/>
    </g>
    <path id="Path_4874" data-name="Path 4874" d="M-826.053,147.638l-7.567-7.562a2.673,2.673,0,0,0-3.78,0l0,0a2.674,2.674,0,0,0,0,3.782h0l7.567,7.569a2.676,2.676,0,0,0,3.784,0h0a2.675,2.675,0,0,0,.005-3.784Z" transform="translate(-94.547 -45.06)" fill="#FF571F"/>
    <path id="Path_4875" data-name="Path 4875" d="M-837.407,147.63l7.569-7.567a2.676,2.676,0,0,1,3.784,0h0a2.676,2.676,0,0,1,0,3.784h0l-7.569,7.566a2.676,2.676,0,0,1-3.784,0h0A2.676,2.676,0,0,1-837.407,147.63Z" transform="translate(-94.546 -45.052)" fill="#FF571F"/>
  </g>
</svg>
