<svg id="profile" xmlns="http://www.w3.org/2000/svg" width="22" height="22" viewBox="0 0 22 22">
  <g id="Group_11444" data-name="Group 11444" transform="translate(9.356 9.751)">
    <g id="Group_11443" data-name="Group 11443">
      <path id="Path_4751" data-name="Path 4751" d="M212.6,209.923a1.648,1.648,0,0,1,1.646,1.646V214.9a1.646,1.646,0,1,1-3.293,0v-3.329A1.648,1.648,0,0,1,212.6,209.923Zm-.549,4.976a.549.549,0,0,0,1.1,0v-3.329a.549.549,0,1,0-1.1,0Z" transform="translate(-210.951 -209.923)" fill="#FF571F"/>
    </g>
  </g>
  <g id="Group_11446" data-name="Group 11446" transform="translate(9.356 4.988)">
    <g id="Group_11445" data-name="Group 11445">
      <path id="Path_4752" data-name="Path 4752" d="M212.6,89.967a1.646,1.646,0,1,1-1.646,1.646A1.648,1.648,0,0,1,212.6,89.967Zm0,2.2a.549.549,0,1,0-.549-.549A.549.549,0,0,0,212.6,92.162Z" transform="translate(-210.951 -89.967)" fill="#FF571F"/>
    </g>
  </g>
  <g id="Group_11448" data-name="Group 11448">
    <g id="Group_11447" data-name="Group 11447">
      <path id="Path_4753" data-name="Path 4753" d="M.466,20.74A7.539,7.539,0,0,0,3.272,17.71a10.188,10.188,0,0,1-3.237-7.4C.035,4.625,4.968,0,11.032,0s11,4.625,11,10.309S17.112,20.7,11.032,20.7a11.66,11.66,0,0,1-2.406-.25c-.031-.007-.274-.036-.438-.077a17.471,17.471,0,0,1-7.379,1.61A.648.648,0,0,1,.466,20.74Zm7.209-1.55a.644.644,0,0,1,.606-.145,10.321,10.321,0,0,0,2.75.37c5.353,0,9.708-4.085,9.708-9.106,0-4.974-4.355-9.02-9.708-9.02s-9.708,4.046-9.708,9.02A8.872,8.872,0,0,0,4.465,17.05a.644.644,0,0,1,.182.723,8.194,8.194,0,0,1-1.98,2.887A12.587,12.587,0,0,0,7.675,19.19Z" transform="translate(-0.029)" fill="#FF571F"/>
    </g>
  </g>
</svg>
