<svg xmlns="http://www.w3.org/2000/svg" width="59" height="69" viewBox="0 0 59 69">
  <g id="puzzles" transform="translate(88.691 4.175)">
    <g id="Path_4833" data-name="Path 4833" transform="translate(-88.691 -4.175)">
      <path id="Path_4918" data-name="Path 4918" d="M-31.682,61.494H-37.2a1.368,1.368,0,0,1-1.378-1.358V18.046A21.89,21.89,0,0,0-60.631-3.675,21.89,21.89,0,0,0-82.68,18.046v7.739l-5.282,7.8a1.344,1.344,0,0,0,.32,1.835l4.962,3.669v8.825a4.1,4.1,0,0,0,4.135,4.073h8.269v8.146a1.368,1.368,0,0,1-1.374,1.36H-81.3a1.368,1.368,0,0,0-1.377,1.359A1.369,1.369,0,0,0-81.3,64.21h9.652a4.1,4.1,0,0,0,4.135-4.073v-9.5a1.368,1.368,0,0,0-1.378-1.358h-9.652a1.368,1.368,0,0,1-1.378-1.358v-9.5a1.351,1.351,0,0,0-.548-1.086l-4.47-3.3,4.79-7.078a1.35,1.35,0,0,0,.231-.755V23.477h4.135a1.368,1.368,0,0,0,1.376-1.36h0v-4.07a2.735,2.735,0,0,1,2.755-2.716A2.736,2.736,0,0,1-68.9,18.044v4.072a1.368,1.368,0,0,0,1.378,1.358h5.51V28.9h-2.753a5.472,5.472,0,0,0-5.513,5.431,5.473,5.473,0,0,0,5.513,5.432h2.753v6.788a1.368,1.368,0,0,0,1.378,1.358,1.368,1.368,0,0,0,1.378-1.358V38.412a1.368,1.368,0,0,0-1.378-1.358h-4.131a2.736,2.736,0,0,1-2.756-2.715,2.736,2.736,0,0,1,2.756-2.715h4.135a1.368,1.368,0,0,0,1.378-1.358V23.478h4.135v2.715A5.472,5.472,0,0,0-49.6,31.624a5.473,5.473,0,0,0,5.514-5.431V23.477h2.756v36.66a4.1,4.1,0,0,0,4.135,4.07h5.513a1.368,1.368,0,0,0,1.377-1.359,1.369,1.369,0,0,0-1.377-1.357ZM-66.14,20.761V18.046a5.472,5.472,0,0,0-5.513-5.431,5.473,5.473,0,0,0-5.514,5.431v2.715h-2.756V18.046A19.139,19.139,0,0,1-62.009-.894V5.826a1.368,1.368,0,0,0,1.378,1.358H-56.5A2.736,2.736,0,0,1-53.739,9.9,2.736,2.736,0,0,1-56.5,12.614h-4.131a1.368,1.368,0,0,0-1.382,1.354v6.793Zm20.675,0a1.368,1.368,0,0,0-1.378,1.354v4.073A2.736,2.736,0,0,1-49.6,28.9a2.736,2.736,0,0,1-2.756-2.715h0V22.116a1.368,1.368,0,0,0-1.378-1.358h-5.514V15.331h2.756A5.473,5.473,0,0,0-50.978,9.9a5.474,5.474,0,0,0-5.514-5.432h-2.756V-.894a19.14,19.14,0,0,1,17.918,18.94v2.715Z" transform="translate(88.748 4.233)" fill="#FF571F"/>
      <path id="Path_4919" data-name="Path 4919" d="M-71.6,64.825h-9.655a1.915,1.915,0,0,1-1.926-1.9,1.874,1.874,0,0,1,.563-1.342,1.933,1.933,0,0,1,1.362-.557H-71.6a.825.825,0,0,0,.826-.82V52.6h-7.724a4.656,4.656,0,0,1-4.684-4.615v-8.56l-4.744-3.51a1.88,1.88,0,0,1-.447-2.565l5.192-7.67V18.1A22.469,22.469,0,0,1-60.573-4.175h0A22.63,22.63,0,0,1-44.586,2.347,21.962,21.962,0,0,1-37.962,18.1V60.21a.826.826,0,0,0,.831.818h4.755v0h.762a1.916,1.916,0,0,1,1.924,1.9,1.869,1.869,0,0,1-.564,1.342,1.922,1.922,0,0,1-1.361.557h-5.515a4.656,4.656,0,0,1-4.684-4.612V24.071h-1.661v2.178a6.026,6.026,0,0,1-6.063,5.975A6.026,6.026,0,0,1-55.6,26.249V24.072h-3.04v6.252a1.915,1.915,0,0,1-1.927,1.9h-4.136A2.2,2.2,0,0,0-66.916,34.4a2.2,2.2,0,0,0,2.209,2.177h4.133a1.915,1.915,0,0,1,1.927,1.9v8.147a1.914,1.914,0,0,1-1.927,1.9,1.915,1.915,0,0,1-1.927-1.9V40.369h-2.206A6.025,6.025,0,0,1-70.769,34.4a6.026,6.026,0,0,1,6.063-5.975H-62.5V24.067h-4.964a1.915,1.915,0,0,1-1.927-1.9V18.1a2.149,2.149,0,0,0-.648-1.541,2.215,2.215,0,0,0-1.562-.637h0a2.209,2.209,0,0,0-1.562.638,2.148,2.148,0,0,0-.647,1.54v4.072a1.915,1.915,0,0,1-1.924,1.9h-3.588v2.176a1.879,1.879,0,0,1-.323,1.055l-4.5,6.657,4.057,3a1.9,1.9,0,0,1,.767,1.519v9.509a.826.826,0,0,0,.831.818h9.655a1.914,1.914,0,0,1,1.927,1.9V60.21A4.655,4.655,0,0,1-71.6,64.825Zm-9.655-2.717a.827.827,0,0,0-.586.241.8.8,0,0,0-.243.578.826.826,0,0,0,.83.819H-71.6a3.566,3.566,0,0,0,3.588-3.535V50.7a.826.826,0,0,0-.831-.818h-9.655a1.915,1.915,0,0,1-1.927-1.9v-9.51a.815.815,0,0,0-.33-.654l-4.885-3.611,5.079-7.506a.816.816,0,0,0,.139-.457V22.991h4.684a.838.838,0,0,0,.586-.241.8.8,0,0,0,.242-.579V18.1a3.212,3.212,0,0,1,.968-2.3,3.313,3.313,0,0,1,2.337-.955h0a3.312,3.312,0,0,1,2.337.953,3.218,3.218,0,0,1,.969,2.3v4.074a.826.826,0,0,0,.831.818h6.06V29.5h-3.3A4.936,4.936,0,0,0-69.673,34.4a4.936,4.936,0,0,0,4.967,4.894h3.3v7.332a.826.826,0,0,0,.831.818.826.826,0,0,0,.831-.818V38.474a.826.826,0,0,0-.831-.819h-4.133A3.285,3.285,0,0,1-68.012,34.4a3.285,3.285,0,0,1,3.305-3.257h4.136a.826.826,0,0,0,.831-.818V22.992h5.232v3.257a4.937,4.937,0,0,0,4.968,4.895,4.936,4.936,0,0,0,4.967-4.895V22.991h3.853V60.21a3.567,3.567,0,0,0,3.588,3.532h5.515a.83.83,0,0,0,.586-.24.81.81,0,0,0,.243-.579.825.825,0,0,0-.762-.815h-5.583a1.915,1.915,0,0,1-1.927-1.9V18.1A20.9,20.9,0,0,0-45.36,3.11,21.535,21.535,0,0,0-60.57-3.1h0A21.38,21.38,0,0,0-82.082,18.1V26l-5.376,7.942a.809.809,0,0,0,.194,1.1l5.182,3.833v9.1a3.566,3.566,0,0,0,3.588,3.535h8.82v8.69a1.914,1.914,0,0,1-1.92,1.9ZM-49.539,29.5a3.285,3.285,0,0,1-3.305-3.257V22.169a.826.826,0,0,0-.831-.818h-6.064V14.84h3.305a4.936,4.936,0,0,0,4.967-4.895,4.936,4.936,0,0,0-4.967-4.894h-3.305V-1.432l.587.041A19.77,19.77,0,0,1-40.719,18.1v3.258H-45.4a.826.826,0,0,0-.831.817v4.073A3.285,3.285,0,0,1-49.539,29.5Zm-9.1-9.23h4.968a1.914,1.914,0,0,1,1.927,1.9v4.075a2.2,2.2,0,0,0,2.209,2.177,2.2,2.2,0,0,0,2.209-2.177V22.169a1.916,1.916,0,0,1,1.927-1.9h3.588V18.1A18.67,18.67,0,0,0-58.643-.263V3.972h2.209a6.026,6.026,0,0,1,6.063,5.974,6.026,6.026,0,0,1-6.063,5.975h-2.209ZM-61.4,21.354h-5.229V18.1A4.937,4.937,0,0,0-71.6,13.2,4.937,4.937,0,0,0-76.568,18.1v3.257h-3.853V18.1A19.77,19.77,0,0,1-61.992-1.391l.587-.042v7.3a.826.826,0,0,0,.831.818h4.136a3.285,3.285,0,0,1,3.305,3.257A3.285,3.285,0,0,1-56.437,13.2h-4.135a.835.835,0,0,0-.587.239.812.812,0,0,0-.244.578Zm-4.133-1.08H-62.5V14.022a1.873,1.873,0,0,1,.568-1.347,1.93,1.93,0,0,1,1.359-.553h4.136a2.2,2.2,0,0,0,2.209-2.177,2.2,2.2,0,0,0-2.209-2.177h-4.136A1.915,1.915,0,0,1-62.5,5.87V-.263A18.671,18.671,0,0,0-79.325,18.1v2.176h1.661V18.1A6.026,6.026,0,0,1-71.6,12.123,6.026,6.026,0,0,1-65.537,18.1Z" transform="translate(88.691 4.175)" fill="#FF571F"/>
    </g>
  </g>
</svg>
