<svg xmlns="http://www.w3.org/2000/svg" width="60" height="60" viewBox="0 0 60 60">
  <g id="question" transform="translate(391.467 -69)">
    <g id="Group_11823" data-name="Group 11823" transform="translate(-391.467 69)">
      <g id="Group_11822" data-name="Group 11822" transform="translate(0 0)">
        <circle id="Ellipse_184" data-name="Ellipse 184" cx="2.959" cy="2.959" r="2.959" transform="translate(27.041 41.381)" fill="#FF571F"/>
        <path id="Path_5087" data-name="Path 5087" d="M-361.467,69a29.984,29.984,0,0,0-30,30,29.984,29.984,0,0,0,30,30,29.984,29.984,0,0,0,30-30A29.984,29.984,0,0,0-361.467,69Zm0,55.313A25.3,25.3,0,0,1-386.78,99a25.3,25.3,0,0,1,25.313-25.313A25.3,25.3,0,0,1-336.154,99,25.3,25.3,0,0,1-361.467,124.313Z" transform="translate(391.467 -69)" fill="#FF571F"/>
        <path id="Path_5088" data-name="Path 5088" d="M-325.695,110.108a9.48,9.48,0,0,0-9.469,9.469,2.367,2.367,0,0,0,2.367,2.367,2.367,2.367,0,0,0,2.367-2.367,4.74,4.74,0,0,1,4.735-4.735,4.74,4.74,0,0,1,4.734,4.735,4.74,4.74,0,0,1-4.734,4.734,2.367,2.367,0,0,0-2.367,2.367V132.6a2.367,2.367,0,0,0,2.367,2.367,2.367,2.367,0,0,0,2.367-2.367v-3.85a9.485,9.485,0,0,0,7.1-9.169A9.48,9.48,0,0,0-325.695,110.108Z" transform="translate(355.695 -95.154)" fill="#FF571F"/>
      </g>
    </g>
  </g>
</svg>
