<svg xmlns="http://www.w3.org/2000/svg" width="5" height="8" viewBox="0 0 5 8">
  <path id="question" d="M1.72,7.273a.755.755,0,0,1,.78-.727A.729.729,0,1,1,2.5,8,.755.755,0,0,1,1.72,7.273Zm.155-1.746V4.073A.6.6,0,0,1,2.5,3.491,1.21,1.21,0,0,0,3.75,2.327,1.21,1.21,0,0,0,2.5,1.163,1.211,1.211,0,0,0,1.25,2.327a.6.6,0,0,1-.625.581A.6.6,0,0,1,0,2.327,2.421,2.421,0,0,1,2.5,0,2.421,2.421,0,0,1,5,2.327,2.367,2.367,0,0,1,3.125,4.58v.947A.6.6,0,0,1,2.5,6.11.6.6,0,0,1,1.875,5.527Z" fill="#fefefe"/>
</svg>
