<svg xmlns="http://www.w3.org/2000/svg" width="70" height="45" viewBox="0 0 70 45">
  <g id="record" transform="translate(-2.833 53)">
    <g id="Path_4843" data-name="Path 4843" transform="translate(2.833 -53)">
      <path id="Path_4934" data-name="Path 4934" d="M25.377-8.612h24.8A21.994,21.994,0,0,0,72.221-30.556,21.994,21.994,0,0,0,50.177-52.5h-24.8A21.994,21.994,0,0,0,3.333-30.556,21.994,21.994,0,0,0,25.377-8.612Zm0-41.146h24.8a19.246,19.246,0,0,1,19.292,19.2,19.245,19.245,0,0,1-19.287,19.2H25.377a19.245,19.245,0,0,1-19.291-19.2,19.244,19.244,0,0,1,19.286-19.2Zm0,27.43V-38.785a1.375,1.375,0,0,1,1.417-1.332,1.374,1.374,0,0,1,1.339,1.332V-22.33a1.374,1.374,0,0,1-1.339,1.41,1.376,1.376,0,0,1-1.417-1.332v-.074Zm22.044,0V-38.785a1.376,1.376,0,0,1,1.339-1.41,1.374,1.374,0,0,1,1.417,1.333c0,.026,0,.051,0,.078V-22.33a1.374,1.374,0,0,1-1.339,1.41,1.375,1.375,0,0,1-1.417-1.332v-.074ZM19.866-25.07V-36.042a1.376,1.376,0,0,1,1.339-1.41,1.375,1.375,0,0,1,1.417,1.332c0,.026,0,.051,0,.078V-25.07A1.374,1.374,0,0,1,21.2-23.737,1.376,1.376,0,0,1,19.866-25.07Zm11.023,0V-36.042a1.376,1.376,0,0,1,1.339-1.41,1.375,1.375,0,0,1,1.417,1.332c0,.026,0,.051,0,.078V-25.07a1.374,1.374,0,0,1-1.339,1.41,1.376,1.376,0,0,1-1.417-1.332Zm11.023,0V-36.042a1.376,1.376,0,0,1,1.339-1.41,1.374,1.374,0,0,1,1.417,1.332c0,.026,0,.051,0,.078V-25.07a1.374,1.374,0,0,1-1.339,1.41,1.375,1.375,0,0,1-1.417-1.332Zm11.023,0V-36.042a1.376,1.376,0,0,1,1.339-1.41,1.374,1.374,0,0,1,1.417,1.332c0,.026,0,.051,0,.078V-25.07a1.374,1.374,0,0,1-1.339,1.41,1.375,1.375,0,0,1-1.417-1.332ZM36.4-27.127v-6.858a1.375,1.375,0,0,1,1.417-1.332,1.374,1.374,0,0,1,1.339,1.332v6.858a1.374,1.374,0,0,1-1.417,1.332A1.376,1.376,0,0,1,36.4-27.127Zm22.044,0v-6.858a1.376,1.376,0,0,1,1.339-1.41A1.374,1.374,0,0,1,61.2-34.063c0,.026,0,.051,0,.078v6.858a1.374,1.374,0,0,1-1.339,1.41,1.375,1.375,0,0,1-1.417-1.332Zm-44.088,0v-6.858a1.375,1.375,0,0,1,1.417-1.332,1.374,1.374,0,0,1,1.339,1.332v6.858a1.374,1.374,0,0,1-1.339,1.41,1.376,1.376,0,0,1-1.417-1.332Z" transform="translate(-2.777 53.056)" fill="#FF571F"/>
      <path id="Path_4935" data-name="Path 4935" d="M50.236-8H25.43a22.575,22.575,0,0,1-22.6-22.5A22.575,22.575,0,0,1,25.43-53H50.236a22.575,22.575,0,0,1,22.6,22.5A22.575,22.575,0,0,1,50.236-8ZM25.43-51.906A21.478,21.478,0,0,0,3.931-30.5,21.478,21.478,0,0,0,25.43-9.094H50.236A21.477,21.477,0,0,0,71.735-30.5a21.477,21.477,0,0,0-21.5-21.406Zm0,41.163A19.754,19.754,0,0,1,11.4-16.528,19.583,19.583,0,0,1,5.586-30.5a19.82,19.82,0,0,1,19.839-19.76H50.238a19.756,19.756,0,0,1,14.03,5.785A19.578,19.578,0,0,1,70.081-30.5a19.578,19.578,0,0,1-5.81,13.97,19.751,19.751,0,0,1-14.03,5.788H25.427Zm0-38.419A18.723,18.723,0,0,0,6.685-30.5,18.724,18.724,0,0,0,25.427-11.837H50.236a18.659,18.659,0,0,0,13.259-5.468,18.5,18.5,0,0,0,5.488-13.2,18.5,18.5,0,0,0-5.491-13.2,18.667,18.667,0,0,0-13.253-5.465H25.425Zm23.431,28.85a1.927,1.927,0,0,1-1.926-1.866V-38.732A1.923,1.923,0,0,1,48.8-40.69a1.932,1.932,0,0,1,1.981,1.865v16.554a1.921,1.921,0,0,1-1.873,1.957Zm-1.3-1.955.471.02a.838.838,0,0,0,.829.842h.024a.828.828,0,0,0,.8-.849V-38.732a.843.843,0,0,0-.829-.865h-.023a.829.829,0,0,0-.805.849v16.48ZM26.809-20.312a1.927,1.927,0,0,1-1.928-1.866l.53-.09h-.53V-38.732a1.923,1.923,0,0,1,1.981-1.88,1.924,1.924,0,0,1,1.873,1.865v16.477a1.922,1.922,0,0,1-1.871,1.957Zm-1.224-1.955.394.008a.826.826,0,0,0,.852.853.828.828,0,0,0,.805-.849V-38.732a.824.824,0,0,0-.805-.786.85.85,0,0,0-.852.8v16.449Zm28.783-.786a1.918,1.918,0,0,1-1.321-.524,1.9,1.9,0,0,1-.6-1.341v-11.07a1.894,1.894,0,0,1,.526-1.357,1.925,1.925,0,0,1,1.348-.6,1.982,1.982,0,0,1,1.378.524,1.9,1.9,0,0,1,.6,1.341v11.07a1.9,1.9,0,0,1-.527,1.357,1.922,1.922,0,0,1-1.347.6Zm0-13.8h-.025a.821.821,0,0,0-.579.258.815.815,0,0,0-.226.591v11.07a.814.814,0,0,0,.259.561.8.8,0,0,0,.593.225.833.833,0,0,0,.58-.258A.82.82,0,0,0,55.2-25V-35.989a.856.856,0,0,0-.26-.639A.82.82,0,0,0,54.372-36.852Zm-11.028,13.8a1.918,1.918,0,0,1-1.321-.524,1.9,1.9,0,0,1-.6-1.341v-11.07a1.891,1.891,0,0,1,.524-1.356,1.922,1.922,0,0,1,1.349-.6,1.978,1.978,0,0,1,1.378.524,1.9,1.9,0,0,1,.6,1.341v11.07a1.9,1.9,0,0,1-.527,1.357,1.922,1.922,0,0,1-1.347.6Zm-1.375-1.957.549.056a.821.821,0,0,0,.258.583.808.808,0,0,0,.593.225.833.833,0,0,0,.58-.258A.824.824,0,0,0,44.175-25V-35.989a.856.856,0,0,0-.26-.639.8.8,0,0,0-.593-.225.821.821,0,0,0-.579.258.814.814,0,0,0-.225.591v11.015ZM32.32-23.054a1.926,1.926,0,0,1-1.926-1.865v-11.07a1.894,1.894,0,0,1,.526-1.357,1.924,1.924,0,0,1,1.347-.6,1.9,1.9,0,0,1,1.378.524,1.906,1.906,0,0,1,.6,1.341v11.07a1.9,1.9,0,0,1-.526,1.357,1.925,1.925,0,0,1-1.348.6Zm-1.377-1.957.549.067a.823.823,0,0,0,.852.8.826.826,0,0,0,.579-.258A.821.821,0,0,0,33.15-25V-35.989a.858.858,0,0,0-.259-.639.82.82,0,0,0-.593-.225.82.82,0,0,0-.58.258.818.818,0,0,0-.226.591v11ZM21.3-23.132h-.056A1.926,1.926,0,0,1,19.369-25V-35.989a1.894,1.894,0,0,1,.526-1.357,1.92,1.92,0,0,1,1.347-.6,1.9,1.9,0,0,1,1.378.524,1.9,1.9,0,0,1,.6,1.341v11.07A1.927,1.927,0,0,1,21.3-23.132Zm-.83-1.889a.829.829,0,0,0,.806.8.83.83,0,0,0,.851-.8V-35.989a.853.853,0,0,0-.258-.639.813.813,0,0,0-.593-.225.828.828,0,0,0-.806.849Zm-4.683-.092a1.927,1.927,0,0,1-1.926-1.865V-33.93a1.925,1.925,0,0,1,1.981-1.88,1.925,1.925,0,0,1,1.873,1.865v6.876a1.921,1.921,0,0,1-1.873,1.957Zm-1.377-1.957.549.066a.821.821,0,0,0,.852.8.828.828,0,0,0,.805-.849V-33.93a.824.824,0,0,0-.805-.786.8.8,0,0,0-.852.8v6.856Zm45.474,1.957a1.926,1.926,0,0,1-1.926-1.865V-33.93a1.922,1.922,0,0,1,1.874-1.957,1.925,1.925,0,0,1,1.98,1.865v6.954a1.921,1.921,0,0,1-1.873,1.957ZM58.5-27.069l.549.055a.83.83,0,0,0,.829.809h.024a.828.828,0,0,0,.8-.849V-33.93a.8.8,0,0,0-.852-.864.829.829,0,0,0-.805.849v6.9Zm-20.67,1.881h-.055a1.926,1.926,0,0,1-1.873-1.865V-33.93a1.921,1.921,0,0,1,1.981-1.88,1.925,1.925,0,0,1,1.873,1.865v6.876A1.93,1.93,0,0,1,37.834-25.189ZM37-27.078a.828.828,0,0,0,.806.8.848.848,0,0,0,.851-.8V-33.93a.824.824,0,0,0-.805-.786.851.851,0,0,0-.852.8Z" transform="translate(-2.833 53)" fill="#FF571F"/>
    </g>
  </g>
</svg>
