<svg id="shopping-bag" xmlns="http://www.w3.org/2000/svg" width="20" height="25" viewBox="0 0 20 25">
  <g id="Group_11420" data-name="Group 11420">
    <g id="Group_11419" data-name="Group 11419" transform="translate(0)">
      <path id="Path_4744" data-name="Path 4744" d="M73.008,20.616,71.881,6.548A1.768,1.768,0,0,0,70.12,4.932H67.9v-.1a4.876,4.876,0,0,0-9.751,0v.1H55.919a1.767,1.767,0,0,0-1.761,1.614L53.032,20.618A4.061,4.061,0,0,0,54.114,23.7,4.137,4.137,0,0,0,57.127,25H68.913a4.137,4.137,0,0,0,3.013-1.3A4.062,4.062,0,0,0,73.008,20.616ZM59.622,4.832a3.4,3.4,0,0,1,6.8,0v.1h-6.8ZM70.842,22.7a2.613,2.613,0,0,1-1.929.835H57.127A2.613,2.613,0,0,1,55.2,22.7a2.564,2.564,0,0,1-.693-1.969L55.632,6.66a.289.289,0,0,1,.288-.264h2.225a.739.739,0,0,0,1.477,0h6.8a.739.739,0,0,0,1.477,0H70.12a.289.289,0,0,1,.288.266L71.535,20.73A2.566,2.566,0,0,1,70.842,22.7Z" transform="translate(-53.02)" fill="#fff"/>
    </g>
  </g>
  <g id="Group_11422" data-name="Group 11422" transform="translate(6.455 12.173)">
    <g id="Group_11421" data-name="Group 11421" transform="translate(0)">
      <path id="Path_4745" data-name="Path 4745" d="M190.925,250.109a.739.739,0,0,0-1.045,0l-3.3,3.3-1.268-1.268a.739.739,0,1,0-1.045,1.045l1.791,1.791a.738.738,0,0,0,1.045,0l3.821-3.821A.739.739,0,0,0,190.925,250.109Z" transform="translate(-184.052 -249.893)" fill="#fff"/>
    </g>
  </g>
</svg>
