<svg xmlns="http://www.w3.org/2000/svg" width="51" height="60" viewBox="0 0 51 60">
  <g id="sound" transform="translate(769 -69.002)">
    <g id="Group_11820" data-name="Group 11820" transform="translate(-769 69.002)">
      <path id="Path_5086" data-name="Path 5086" d="M-718.914,69.469a2.3,2.3,0,0,0-2.017-.38L-753.5,78.32a2.308,2.308,0,0,0-1.677,2.221v31.242a9.148,9.148,0,0,0-4.609-1.242A9.234,9.234,0,0,0-769,119.771,9.234,9.234,0,0,0-759.783,129a9.234,9.234,0,0,0,9.217-9.231V91.516l27.958-7.925v18.96a9.145,9.145,0,0,0-4.608-1.242,9.234,9.234,0,0,0-9.217,9.231,9.234,9.234,0,0,0,9.217,9.231A9.234,9.234,0,0,0-718,110.541V71.309A2.309,2.309,0,0,0-718.914,69.469Zm-40.868,54.918a4.617,4.617,0,0,1-4.609-4.615,4.617,4.617,0,0,1,4.609-4.616,4.617,4.617,0,0,1,4.608,4.616A4.617,4.617,0,0,1-759.783,124.386Zm32.566-9.231a4.617,4.617,0,0,1-4.608-4.615,4.617,4.617,0,0,1,4.608-4.616,4.617,4.617,0,0,1,4.609,4.616A4.617,4.617,0,0,1-727.217,115.156Zm4.609-36.361-27.958,7.925V82.286l27.958-7.924Z" transform="translate(769 -69.002)" fill="#FF571F"/>
    </g>
  </g>
</svg>
