<svg xmlns="http://www.w3.org/2000/svg" width="69" height="69" viewBox="0 0 69 69">
  <g id="trigger" transform="translate(1192.906 -66.583)">
    <path id="Path_5084" data-name="Path 5084" d="M-1125.087,76.216h-6.984V69.229a1.4,1.4,0,0,0-1.4-1.4,1.4,1.4,0,0,0-.986.409l-12.163,12.166a29.774,29.774,0,0,0-40.822,10.358,29.8,29.8,0,0,0,10.354,40.837,29.774,29.774,0,0,0,40.822-10.358,29.8,29.8,0,0,0,0-30.475L-1124.1,78.6a1.4,1.4,0,0,0,0-1.976A1.4,1.4,0,0,0-1125.087,76.216Zm-9.778,29.694a26.954,26.954,0,0,1-26.889,27.019,26.955,26.955,0,0,1-27.01-26.9,26.955,26.955,0,0,1,26.89-27.019,26.942,26.942,0,0,1,13.221,3.433l-4.7,4.7a20.294,20.294,0,0,0-8.4-1.847,20.607,20.607,0,0,0-20.6,20.611,20.608,20.608,0,0,0,20.6,20.611,20.608,20.608,0,0,0,20.6-20.61,20.3,20.3,0,0,0-1.847-8.4l4.7-4.7a26.763,26.763,0,0,1,3.432,13.106Zm-27.877.988a1.4,1.4,0,0,0,1.975,0l6.085-6.088a8.768,8.768,0,0,1-1.969,12.239,8.761,8.761,0,0,1-12.235-1.97,8.767,8.767,0,0,1,1.969-12.239,8.76,8.76,0,0,1,10.261,0l-6.085,6.087a1.4,1.4,0,0,0,0,1.976Zm7.972-10.141a11.563,11.563,0,0,0-16.214,2.161,11.572,11.572,0,0,0,2.161,16.219,11.563,11.563,0,0,0,16.213-2.161,11.573,11.573,0,0,0,0-14.052h7.188a17.51,17.51,0,0,1,1.477,6.987,17.813,17.813,0,0,1-17.812,17.815,17.813,17.813,0,0,1-17.809-17.818,17.814,17.814,0,0,1,17.806-17.815,17.492,17.492,0,0,1,6.984,1.477Zm9.2-.633H-1150l9.236-9.239a1.4,1.4,0,0,0,.034-1.976,1.4,1.4,0,0,0-1.975-.034l-.035.034-9.236,9.245V89.721l17.112-17.118v5.009a1.4,1.4,0,0,0,1.4,1.4h5.009Z" transform="translate(-0.739 -0.728)" fill="#FF571F"/>
    <path id="Path_5085" data-name="Path 5085" d="M-1162.642,135.583a30.1,30.1,0,0,1-15.451-4.259,30.114,30.114,0,0,1-13.871-18.593,30.123,30.123,0,0,1,3.335-22.959A30.1,30.1,0,0,1-1170.042,75.9a30.084,30.084,0,0,1,22.6,3.132l11.883-11.885a1.9,1.9,0,0,1,1.35-.561h0a1.916,1.916,0,0,1,1.914,1.911v6.473h6.471a1.925,1.925,0,0,1,1.354.562,1.9,1.9,0,0,1,.558,1.354,1.9,1.9,0,0,1-.562,1.352l-11.883,11.887a30.3,30.3,0,0,1-.206,30.662A30.316,30.316,0,0,1-1162.642,135.583Zm.1-59.6a29.441,29.441,0,0,0-7.247.911,29.078,29.078,0,0,0-17.954,13.4,29.1,29.1,0,0,0-3.221,22.176,29.087,29.087,0,0,0,13.4,17.96,29.3,29.3,0,0,0,40.123-10.18,29.263,29.263,0,0,0,0-29.953l-.205-.345,12.448-12.453a.875.875,0,0,0,.259-.624.875.875,0,0,0-.257-.624.874.874,0,0,0-.623-.259h-7.5V68.5a.883.883,0,0,0-.882-.88h0a.875.875,0,0,0-.622.258l-12.448,12.452-.345-.205A29.08,29.08,0,0,0-1162.541,75.987Zm-.014,56.736a27.506,27.506,0,0,1-27.47-27.419,27.306,27.306,0,0,1,8-19.449,27.287,27.287,0,0,1,19.407-8.092h.059a27.519,27.519,0,0,1,13.417,3.5l.595.333-5.437,5.44-.326-.15a19.643,19.643,0,0,0-8.188-1.8,20.118,20.118,0,0,0-20.09,20.1,20.118,20.118,0,0,0,20.092,20.1,20.118,20.118,0,0,0,20.092-20.1,19.643,19.643,0,0,0-1.8-8.19l-.149-.327,5.436-5.438.333.593a27.336,27.336,0,0,1,3.5,13.359h0a27.507,27.507,0,0,1-27.409,27.541Zm0-53.928h-.057a26.262,26.262,0,0,0-18.678,7.788,26.28,26.28,0,0,0-7.7,18.719,26.474,26.474,0,0,0,26.438,26.389h.06a26.262,26.262,0,0,0,18.678-7.788,26.28,26.28,0,0,0,7.7-18.719h0a26.309,26.309,0,0,0-3.039-12.255l-3.962,3.964a20.67,20.67,0,0,1,1.747,8.29,21.152,21.152,0,0,1-21.124,21.131,21.151,21.151,0,0,1-21.124-21.131,21.151,21.151,0,0,1,21.124-21.131,20.661,20.661,0,0,1,8.289,1.747l3.961-3.962A26.492,26.492,0,0,0-1162.556,78.795Zm.065,44.723h0a18.207,18.207,0,0,1-12.96-5.371,18.219,18.219,0,0,1-5.367-12.966,18.354,18.354,0,0,1,18.325-18.334,17.911,17.911,0,0,1,7.193,1.521l.309.135v8.57l-.829-.635A10.977,10.977,0,0,0-1164,94.261a10.978,10.978,0,0,0-7.319,4.242,11.071,11.071,0,0,0,2.065,15.5,11.063,11.063,0,0,0,15.494-2.065,11.083,11.083,0,0,0,0-13.427l-.634-.83h8.57l.136.308a17.914,17.914,0,0,1,1.52,7.194A18.354,18.354,0,0,1-1162.49,123.518Zm-.006-35.639a17.32,17.32,0,0,0-17.291,17.3,17.193,17.193,0,0,0,5.065,12.236,17.18,17.18,0,0,0,12.23,5.069,17.321,17.321,0,0,0,17.3-17.3,16.878,16.878,0,0,0-1.3-6.472h-5.859a12.122,12.122,0,0,1-.585,13.852,12.1,12.1,0,0,1-16.94,2.258,12.106,12.106,0,0,1-2.257-16.946,12,12,0,0,1,8-4.639,11.99,11.99,0,0,1,8.108,1.8V89.181A16.87,16.87,0,0,0-1162.5,87.879Zm-.015,26.618a9.274,9.274,0,0,1-7.534-3.842,9.225,9.225,0,0,1-1.641-6.913,9.222,9.222,0,0,1,3.726-6.049,9.262,9.262,0,0,1,10.867,0l.491.355-6.514,6.516a.883.883,0,0,0-.031,1.215l.029.03a.882.882,0,0,0,1.246,0l6.514-6.518.355.491a9.3,9.3,0,0,1-2.085,12.962A9.228,9.228,0,0,1-1162.511,114.5Zm-.012-17.534a8.233,8.233,0,0,0-4.832,1.567,8.2,8.2,0,0,0-3.312,5.376,8.2,8.2,0,0,0,1.458,6.144,8.256,8.256,0,0,0,11.516,1.854,8.265,8.265,0,0,0,2.193-11.014l-5.642,5.645a1.913,1.913,0,0,1-1.824.5v.384l-.881-.884a1.917,1.917,0,0,1,0-2.706l5.641-5.643A8.229,8.229,0,0,0-1162.524,96.963Zm16.43-1.052h-5.891l10.118-10.123a.881.881,0,0,0,.276-.625.876.876,0,0,0-.247-.628.874.874,0,0,0-.618-.269.9.9,0,0,0-.627.247l-10.147,10.156V88.777l18.147-18.153v6.257a.882.882,0,0,0,.881.881h6.256Zm-3.4-1.032h2.972l16.083-16.085h-3.764a1.916,1.916,0,0,1-1.913-1.914V73.117L-1152.2,89.205v2.973l8.4-8.406a1.844,1.844,0,0,1,1.362-.537,1.9,1.9,0,0,1,1.343.584,1.9,1.9,0,0,1,.537,1.362,1.9,1.9,0,0,1-.584,1.343Z" transform="translate(0 0)" fill="#FF571F"/>
  </g>
</svg>
