<svg xmlns="http://www.w3.org/2000/svg" width="69" height="72" viewBox="0 0 69 72">
  <g id="update" transform="translate(165.263 -16.881)">
    <g id="Group_11607" data-name="Group 11607" transform="translate(-165.263 16.881)">
      <g id="Path_4826" data-name="Path 4826" transform="translate(11.242 47.368)">
        <path id="Path_4910" data-name="Path 4910" d="M-99.71,58.9a1.517,1.517,0,0,0-1.857-1.075l-.011,0-6.213,1.67a1.518,1.518,0,0,0-1.073,1.859A1.518,1.518,0,0,0-107,62.426h0l2.68-.718-.445.769a31.857,31.857,0,0,1-43.514,11.672l-.02-.011a32.558,32.558,0,0,1-3.491-2.341,1.518,1.518,0,0,0-2.129.282,1.518,1.518,0,0,0,.282,2.128,35.208,35.208,0,0,0,3.82,2.56,34.927,34.927,0,0,0,47.681-12.778l.443-.769.718,2.68a1.518,1.518,0,0,0,1.859,1.073,1.518,1.518,0,0,0,1.073-1.859h0Z" transform="translate(154.723 -57.282)" fill="#FF571F"/>
        <path id="Path_4911" data-name="Path 4911" d="M-132.352,82a35.18,35.18,0,0,1-17.622-4.722,36.206,36.206,0,0,1-3.874-2.6,2.014,2.014,0,0,1-.371-2.816,2.013,2.013,0,0,1,2.815-.372,32.083,32.083,0,0,0,3.439,2.306,31.407,31.407,0,0,0,42.714-11.226l-1.535.412a2.012,2.012,0,0,1-2.46-1.42,2.013,2.013,0,0,1,1.418-2.461l6.213-1.668a2.015,2.015,0,0,1,1.535.2,1.988,1.988,0,0,1,.933,1.22l1.665,6.215A2.012,2.012,0,0,1-98.9,67.536a2.013,2.013,0,0,1-2.46-1.42l-.413-1.54A35.449,35.449,0,0,1-132.352,82Zm-20.273-9.94a1.028,1.028,0,0,0-.817.4,1.031,1.031,0,0,0,.191,1.443,35.022,35.022,0,0,0,3.768,2.526,34.489,34.489,0,0,0,47.011-12.6l1.034-1.793,1.024,3.824a1.03,1.03,0,0,0,1.26.725,1.03,1.03,0,0,0,.726-1.259l-1.666-6.216a1.022,1.022,0,0,0-.478-.625,1.022,1.022,0,0,0-.78-.1l-6.221,1.672a1.032,1.032,0,0,0-.728,1.26,1.033,1.033,0,0,0,1.26.726l3.824-1.024-1.039,1.793a32.383,32.383,0,0,1-44.183,11.852A33.289,33.289,0,0,1-152,72.275,1.025,1.025,0,0,0-152.625,72.063Z" transform="translate(154.633 -57.371)" fill="#FF571F"/>
      </g>
      <g id="Path_4827" data-name="Path 4827" transform="translate(27.03)">
        <path id="Path_4912" data-name="Path 4912" d="M-135.263,21.848h-.9l1.96-1.96a1.518,1.518,0,0,0,.033-2.146,1.518,1.518,0,0,0-2.146-.033l-.033.033-4.555,4.552a1.517,1.517,0,0,0,0,2.146l4.553,4.553a1.516,1.516,0,0,0,2.145.062,1.517,1.517,0,0,0,.064-2.145c-.02-.021-.04-.042-.061-.061l-1.96-1.96h.9A31.822,31.822,0,0,1-103.4,56.666a31.7,31.7,0,0,1-.283,4.282,1.519,1.519,0,0,0,1.306,1.7,1.519,1.519,0,0,0,1.7-1.306,34.86,34.86,0,0,0-29.913-39.187A34.8,34.8,0,0,0-135.263,21.848Z" transform="translate(141.834 -16.791)" fill="#FF571F"/>
        <path id="Path_4913" data-name="Path 4913" d="M-102.08,63.245a1.985,1.985,0,0,1-.268-.017,2.012,2.012,0,0,1-1.727-2.254,31.319,31.319,0,0,0,.279-4.217,31.129,31.129,0,0,0-9.21-22.143,31.123,31.123,0,0,0-21.881-9.142l1.123,1.122a2.032,2.032,0,0,1-.012,2.91,2.012,2.012,0,0,1-2.838-.085l-4.543-4.542a2.01,2.01,0,0,1,0-2.839l4.555-4.552a2.046,2.046,0,0,1,1.467-.6,1.989,1.989,0,0,1,1.411.61,2,2,0,0,1,.566,1.428,1.992,1.992,0,0,1-.611,1.41l-1.118,1.118a35.694,35.694,0,0,1,4.46.314,35.126,35.126,0,0,1,23.4,13.588A35.119,35.119,0,0,1-100.094,61.5a2,2,0,0,1-.768,1.329A2,2,0,0,1-102.08,63.245ZM-135.125,24.49a32.1,32.1,0,0,1,22.811,9.43,32.1,32.1,0,0,1,9.5,22.834A32.424,32.424,0,0,1-103.1,61.1a1.031,1.031,0,0,0,.886,1.154,1.008,1.008,0,0,0,.759-.2,1.021,1.021,0,0,0,.393-.681,34.147,34.147,0,0,0-6.744-25.428,34.146,34.146,0,0,0-22.747-13.21,44.06,44.06,0,0,0-4.615-.3h-2.08l2.8-2.8a1.026,1.026,0,0,0,.318-.728,1.023,1.023,0,0,0-.29-.73,1.012,1.012,0,0,0-.721-.312.955.955,0,0,0-.732.289l-4.582,4.58a1.028,1.028,0,0,0,0,1.453l4.553,4.553a1.034,1.034,0,0,0,1.463.054,1.031,1.031,0,0,0,.043-1.454l-2.848-2.847h2.129Z" transform="translate(141.744 -16.881)" fill="#FF571F"/>
      </g>
      <g id="Path_4828" data-name="Path 4828" transform="translate(0 7.13)">
        <path id="Path_4914" data-name="Path 4914" d="M-145.908,27.715a32.68,32.68,0,0,1,3.764-1.787,1.462,1.462,0,0,0,.772-1.95,1.535,1.535,0,0,0-1.935-.778,35.885,35.885,0,0,0-4.118,1.959,33.489,33.489,0,0,0-12.785,46.382l.445.748-2.686-.7a1.523,1.523,0,0,0-1.859,1.044,1.473,1.473,0,0,0,1.073,1.808l6.224,1.624a1.544,1.544,0,0,0,1.851-1.033v-.013l1.669-6.053a1.474,1.474,0,0,0-1.074-1.81,1.524,1.524,0,0,0-1.859,1.045l-.712,2.61-.442-.748A30.527,30.527,0,0,1-145.94,27.733l.031-.017Z" transform="translate(165.35 -22.612)" fill="#FF571F"/>
        <path id="Path_4915" data-name="Path 4915" d="M-156.549,76.691a2.113,2.113,0,0,1-.5-.061l-6.232-1.625a1.953,1.953,0,0,1-1.418-2.395,2.023,2.023,0,0,1,2.46-1.381l1.546.4a34.039,34.039,0,0,1,13.109-46.809,36.3,36.3,0,0,1,4.177-1.988,2.029,2.029,0,0,1,2.569,1.026,1.936,1.936,0,0,1-1.019,2.579,32.636,32.636,0,0,0-3.721,1.766l-.243-.414.245.412-.245-.412.235.42A30.121,30.121,0,0,0-157.222,69.67l.405-1.491a2.027,2.027,0,0,1,2.461-1.384,1.953,1.953,0,0,1,1.42,2.395l-1.672,6.08A2.013,2.013,0,0,1-156.549,76.691Zm-6.209-4.575a1.028,1.028,0,0,0-.995.741,1,1,0,0,0,.728,1.226l6.224,1.623a1.048,1.048,0,0,0,1.241-.666l.01-.043,1.67-6.056a1,1,0,0,0-.728-1.225,1.035,1.035,0,0,0-1.26.708l-1.015,3.73-1.036-1.752a31.055,31.055,0,0,1,11.822-43l.034-.019a33.255,33.255,0,0,1,3.82-1.815.989.989,0,0,0,.51-1.316,1.038,1.038,0,0,0-1.311-.528A35.385,35.385,0,0,0-147.1,25.65,33.1,33.1,0,0,0-159.7,71.4l1.035,1.743-3.828-1A1.078,1.078,0,0,0-162.758,72.117Z" transform="translate(165.263 -22.702)" fill="#FF571F"/>
      </g>
      <g id="Path_4829" data-name="Path 4829" transform="translate(15.774 19.388)">
        <path id="Path_4916" data-name="Path 4916" d="M-151.26,52.343a18.215,18.215,0,0,0,18.214,18.214,18.215,18.215,0,0,0,18.214-18.214,18.215,18.215,0,0,0-18.214-18.214A18.215,18.215,0,0,0-151.26,52.343Zm18.214-15.177A15.178,15.178,0,0,1-117.87,52.344,15.178,15.178,0,0,1-133.049,67.52a15.178,15.178,0,0,1-15.176-15.177,15.178,15.178,0,0,1,15.176-15.179h0Z" transform="translate(151.75 -33.639)" fill="#FF571F"/>
        <path id="Path_4917" data-name="Path 4917" d="M-132.956,71.138a18.726,18.726,0,0,1-18.7-18.705,18.725,18.725,0,0,1,18.7-18.7,18.725,18.725,0,0,1,18.7,18.7A18.726,18.726,0,0,1-132.956,71.138Zm0-36.429A17.745,17.745,0,0,0-150.68,52.433a17.744,17.744,0,0,0,17.724,17.724,17.744,17.744,0,0,0,17.724-17.724A17.745,17.745,0,0,0-132.956,34.709Zm0,33.391h0a15.684,15.684,0,0,1-15.666-15.667,15.563,15.563,0,0,1,4.587-11.079,15.565,15.565,0,0,1,11.079-4.59l.119,0a15.561,15.561,0,0,1,10.961,4.588,15.564,15.564,0,0,1,4.588,11.079,15.566,15.566,0,0,1-4.59,11.079A15.572,15.572,0,0,1-132.956,68.1Zm-.192-30.354a14.581,14.581,0,0,0-10.2,4.3,14.593,14.593,0,0,0-4.3,10.386,14.7,14.7,0,0,0,14.686,14.686h0a14.585,14.585,0,0,0,10.383-4.3,14.592,14.592,0,0,0,4.3-10.386,14.589,14.589,0,0,0-4.3-10.386,14.588,14.588,0,0,0-10.385-4.3Z" transform="translate(151.66 -33.729)" fill="#FF571F"/>
      </g>
    </g>
  </g>
</svg>
