<svg xmlns="http://www.w3.org/2000/svg" width="40" height="76" viewBox="0 0 40 76">
  <g id="usb" transform="translate(291.5 -48.5)">
    <path id="Path_4977" data-name="Path 4977" d="M-255.784,68.71h-3.062V53.549A4.571,4.571,0,0,0-263.44,49h-15.311a4.571,4.571,0,0,0-4.593,4.549V68.71h-3.062A4.571,4.571,0,0,0-291,73.259V105.1a19.808,19.808,0,0,0,19.9,19.71,19.808,19.808,0,0,0,19.9-19.71V73.259A4.571,4.571,0,0,0-255.784,68.71Zm-6.125-15.162V68.71H-271.1V65.678a3.047,3.047,0,0,0,3.062-3.032V58.1a3.047,3.047,0,0,0-3.062-3.032V52.032h7.656A1.524,1.524,0,0,1-261.909,53.549Zm-18.374,0a1.524,1.524,0,0,1,1.531-1.516h4.593v3.032A3.047,3.047,0,0,0-271.1,58.1v4.549a3.047,3.047,0,0,0-3.062,3.032V68.71h-6.125Zm26.029,51.55A16.761,16.761,0,0,1-271.1,121.777,16.761,16.761,0,0,1-287.938,105.1V73.259a1.524,1.524,0,0,1,1.531-1.516h30.622a1.524,1.524,0,0,1,1.531,1.516Z" transform="translate(-0.405 -0.405)" fill="#FF571F"/>
    <path id="Path_4978" data-name="Path 4978" d="M-271.5,124.5a19.926,19.926,0,0,1-20-19.805V72.854a4.672,4.672,0,0,1,4.689-4.643h2.967V53.143a4.672,4.672,0,0,1,4.689-4.643h15.311a4.672,4.672,0,0,1,4.689,4.643V68.211h2.967a4.672,4.672,0,0,1,4.689,4.643v31.84A19.926,19.926,0,0,1-271.5,124.5Zm-15.311-56.1a4.481,4.481,0,0,0-4.5,4.454v31.84A19.735,19.735,0,0,0-271.5,124.31a19.735,19.735,0,0,0,19.809-19.616V72.854a4.481,4.481,0,0,0-4.5-4.454h-3.158V53.143a4.481,4.481,0,0,0-4.5-4.454h-15.311a4.481,4.481,0,0,0-4.5,4.454V68.4Zm15.311,53.067a16.875,16.875,0,0,1-16.938-16.773V72.854a1.621,1.621,0,0,1,1.627-1.611h30.622a1.621,1.621,0,0,1,1.627,1.611v31.84A16.875,16.875,0,0,1-271.5,121.468Zm-15.311-50.035a1.43,1.43,0,0,0-1.435,1.421v31.84A16.684,16.684,0,0,0-271.5,121.278a16.684,16.684,0,0,0,16.746-16.584V72.854a1.43,1.43,0,0,0-1.435-1.421Zm24.593-3.032H-271.6V65.178h.1a2.955,2.955,0,0,0,2.967-2.938V57.692a2.955,2.955,0,0,0-2.967-2.938h-.1V51.532h7.751a1.621,1.621,0,0,1,1.627,1.611Zm-9.187-.19h9V53.143a1.43,1.43,0,0,0-1.435-1.421h-7.56v2.844a3.145,3.145,0,0,1,3.062,3.126v4.549a3.145,3.145,0,0,1-3.062,3.126Zm-3.062.19h-6.316V53.143a1.621,1.621,0,0,1,1.627-1.611h4.689V54.66A2.955,2.955,0,0,0-271.5,57.6h.1v4.738h-.1a2.955,2.955,0,0,0-2.966,2.938Zm-6.124-.19h5.933V65.273a3.145,3.145,0,0,1,3.062-3.126V57.785a3.145,3.145,0,0,1-3.062-3.126V51.722h-4.5a1.43,1.43,0,0,0-1.435,1.421Z" transform="translate(0 0)" fill="#FF571F"/>
  </g>
</svg>
