<svg xmlns="http://www.w3.org/2000/svg" width="65" height="74" viewBox="0 0 65 74">
  <g id="usb" transform="translate(-15 -419.5) rotate(-90)">
    <g id="Group_11737" data-name="Group 11737" transform="translate(-493.5 15)">
      <g id="Group_11733" data-name="Group 11733">
        <path id="Path_4989" data-name="Path 4989" d="M-423.615,25.811h-25.1V19.919A4.424,4.424,0,0,0-453.14,15.5h-35.431A4.424,4.424,0,0,0-493,19.919V75.9a4.424,4.424,0,0,0,4.429,4.419h35.431a4.424,4.424,0,0,0,4.429-4.419V70h25.1a4.424,4.424,0,0,0,4.429-4.419V30.231A4.424,4.424,0,0,0-423.615,25.811Zm-66.433,20.623V19.919a1.475,1.475,0,0,1,1.476-1.473h35.431a1.475,1.475,0,0,1,1.476,1.473V75.9a1.475,1.475,0,0,1-1.476,1.473h-35.431a1.475,1.475,0,0,1-1.476-1.473V49.38m67.909,16.2a1.475,1.475,0,0,1-1.476,1.473h-25.1v-38.3h25.1a1.475,1.475,0,0,1,1.476,1.473Z" transform="translate(493.093 -15.407)" fill="#FF571F"/>
        <path id="Path_4990" data-name="Path 4990" d="M-453.547,80h-35.431a4.521,4.521,0,0,1-4.521-4.511V19.511A4.522,4.522,0,0,1-488.979,15h35.431a4.521,4.521,0,0,1,4.521,4.511v5.8h25.005a4.521,4.521,0,0,1,4.521,4.511V65.177a4.521,4.521,0,0,1-4.521,4.511h-25.005v5.8A4.521,4.521,0,0,1-453.547,80Zm-35.431-64.816a4.337,4.337,0,0,0-4.337,4.327V75.489a4.337,4.337,0,0,0,4.337,4.327h35.431a4.337,4.337,0,0,0,4.337-4.327V69.5h25.19a4.337,4.337,0,0,0,4.337-4.327V29.823a4.337,4.337,0,0,0-4.337-4.327h-25.19V19.511a4.337,4.337,0,0,0-4.337-4.327Zm35.431,61.87h-35.431a1.569,1.569,0,0,1-1.569-1.565V48.973h.185V75.489a1.384,1.384,0,0,0,1.384,1.381h35.431a1.384,1.384,0,0,0,1.384-1.381V19.511a1.384,1.384,0,0,0-1.384-1.381h-35.431a1.384,1.384,0,0,0-1.384,1.381V46.027h-.185V19.511a1.569,1.569,0,0,1,1.569-1.565h35.431a1.569,1.569,0,0,1,1.569,1.565V75.489A1.569,1.569,0,0,1-453.547,77.054Zm29.526-10.312h-25.19V28.258h25.19a1.569,1.569,0,0,1,1.569,1.565V65.177A1.569,1.569,0,0,1-424.021,66.742Zm-25.005-.184h25.005a1.384,1.384,0,0,0,1.384-1.381V29.823a1.384,1.384,0,0,0-1.384-1.381h-25.005Z" transform="translate(493.5 -15)" fill="#FF571F"/>
      </g>
      <g id="Group_11734" data-name="Group 11734" transform="translate(54.5 17.643)">
        <path id="Path_4991" data-name="Path 4991" d="M-186.6,111.5h-8.914A1.486,1.486,0,0,0-197,112.986V121.9a1.486,1.486,0,0,0,1.486,1.486h8.914a1.486,1.486,0,0,0,1.486-1.486v-8.914A1.486,1.486,0,0,0-186.6,111.5Zm-1.486,8.914h-5.943v-5.943h5.943Z" transform="translate(197.093 -111.407)" fill="#FF571F"/>
        <path id="Path_4992" data-name="Path 4992" d="M-187.007,123.072h-8.914a1.58,1.58,0,0,1-1.579-1.579v-8.914A1.58,1.58,0,0,1-195.921,111h8.914a1.58,1.58,0,0,1,1.579,1.579v8.914A1.58,1.58,0,0,1-187.007,123.072Zm-8.914-11.886a1.394,1.394,0,0,0-1.393,1.393v8.914a1.394,1.394,0,0,0,1.393,1.393h8.914a1.394,1.394,0,0,0,1.393-1.393v-8.914a1.394,1.394,0,0,0-1.393-1.393Zm7.521,8.914h-6.129v-6.129h6.129Zm-5.943-.186h5.757v-5.757h-5.757Z" transform="translate(197.5 -111)" fill="#FF571F"/>
      </g>
      <g id="Group_11735" data-name="Group 11735" transform="translate(54.5 35.286)">
        <path id="Path_4993" data-name="Path 4993" d="M-186.6,207.5h-8.914A1.486,1.486,0,0,0-197,208.986V217.9a1.486,1.486,0,0,0,1.486,1.486h8.914a1.486,1.486,0,0,0,1.486-1.486v-8.914A1.486,1.486,0,0,0-186.6,207.5Zm-1.486,8.914h-5.943v-5.943h5.943Z" transform="translate(197.093 -207.407)" fill="#FF571F"/>
        <path id="Path_4994" data-name="Path 4994" d="M-187.007,219.072h-8.914a1.58,1.58,0,0,1-1.579-1.579v-8.914A1.58,1.58,0,0,1-195.921,207h8.914a1.58,1.58,0,0,1,1.579,1.579v8.914A1.58,1.58,0,0,1-187.007,219.072Zm-8.914-11.886a1.394,1.394,0,0,0-1.393,1.393v8.914a1.394,1.394,0,0,0,1.393,1.393h8.914a1.394,1.394,0,0,0,1.393-1.393v-8.914a1.394,1.394,0,0,0-1.393-1.393Zm7.521,8.914h-6.129v-6.129h6.129Zm-5.943-.186h5.757v-5.757h-5.757Z" transform="translate(197.5 -207)" fill="#FF571F"/>
      </g>
      <g id="Group_11736" data-name="Group 11736" transform="translate(47.229 27.95)">
        <path id="Path_4995" data-name="Path 4995" d="M-235.514,167.5A1.486,1.486,0,0,0-237,168.986v5.943a1.486,1.486,0,0,0,1.486,1.486,1.486,1.486,0,0,0,1.486-1.486v-5.943A1.486,1.486,0,0,0-235.514,167.5Z" transform="translate(237.093 -167.407)" fill="#FF571F"/>
        <path id="Path_4996" data-name="Path 4996" d="M-235.921,176.1a1.58,1.58,0,0,1-1.579-1.579v-5.943A1.58,1.58,0,0,1-235.921,167a1.58,1.58,0,0,1,1.579,1.579v5.943A1.58,1.58,0,0,1-235.921,176.1Zm0-8.914a1.394,1.394,0,0,0-1.393,1.393v5.943a1.394,1.394,0,0,0,1.393,1.393,1.394,1.394,0,0,0,1.393-1.393v-5.943A1.394,1.394,0,0,0-235.921,167.186Z" transform="translate(237.5 -167)" fill="#FF571F"/>
      </g>
    </g>
    <g id="Group_11738" data-name="Group 11738" transform="translate(-480.635 41.459)">
      <path id="Path_4997" data-name="Path 4997" d="M-393.277,163.931h-24.648l1.931-1.917a1.492,1.492,0,0,0,0-2.11,1.492,1.492,0,0,0-2.11,0l-4.457,4.457a1.486,1.486,0,0,0-.009,2.1l.009.009,4.457,4.457a1.492,1.492,0,0,0,2.11,0,1.492,1.492,0,0,0,0-2.11l-1.931-1.917h24.648" transform="translate(423.091 -159.375)" fill="#FF571F"/>
      <path id="Path_4998" data-name="Path 4998" d="M-417.447,171.054a1.58,1.58,0,0,1-1.12-.463l-4.457-4.457a1.583,1.583,0,0,1,0-2.241l4.457-4.457a1.587,1.587,0,0,1,2.241,0,1.587,1.587,0,0,1,0,2.241l-1.772,1.758h24.423v.186h-24.874l2.092-2.075a1.4,1.4,0,0,0,0-1.978,1.4,1.4,0,0,0-1.978,0l-4.457,4.457a1.4,1.4,0,0,0-.008,1.97l4.466,4.466a1.4,1.4,0,0,0,1.978,0,1.4,1.4,0,0,0,0-1.979l-2.091-2.075h24.874v.186H-418.1l1.772,1.758a1.587,1.587,0,0,1,0,2.241A1.58,1.58,0,0,1-417.447,171.054Z" transform="translate(423.49 -158.971)" fill="#FF571F"/>
    </g>
  </g>
</svg>
