<svg xmlns="http://www.w3.org/2000/svg" width="33" height="23" viewBox="0 0 33 23">
  <g id="youtube" transform="translate(-0.001 0.002)">
    <path id="Subtraction_23" data-name="Subtraction 23" d="M16.5,23c-.1,0-10.332-.008-12.91-.7a4.131,4.131,0,0,1-2.91-2.9A43.341,43.341,0,0,1,0,11.5,43.516,43.516,0,0,1,.679,3.6,4.225,4.225,0,0,1,3.589.678C6.14.008,16.4,0,16.5,0S26.858.008,29.412.7A4.122,4.122,0,0,1,32.32,3.6,41.032,41.032,0,0,1,33,11.527a43.381,43.381,0,0,1-.68,7.9,4.123,4.123,0,0,1-2.908,2.9C26.858,22.992,16.6,23,16.5,23ZM13.211,6.576h0v9.849L21.8,11.5l-8.59-4.923Z" transform="translate(0.001 -0.002)" fill="#fefefe"/>
  </g>
</svg>
